<svg xmlns="http://www.w3.org/2000/svg" version="1.1" xmlns:xlink="http://www.w3.org/1999/xlink" width="512" height="512" x="0" y="0" viewBox="0 0 512 512" style="enable-background:new 0 0 512 512" xml:space="preserve" class=""><g><path fill="#000000" d="m361.902 151.926-70.379-40.633c-12.195-7.04-25.937-5.98-36.476.406l-.008-.011L18.07 248.577v.004C7.543 254.59 0 265.832 0 279.692v119.07c0 15.093 8.05 29.039 21.121 36.586l128.305 74.074c6.523 3.765 13.87 3.156 19.484-.297l.012.02L405.57 372.418l-.015-.023c5.906-3.102 10.21-9.211 10.21-16.833V245.22c0-38.489-20.535-74.051-53.863-93.293zm0 0" opacity="1" data-original="#33aeff" class=""></path><g fill="#0d68be"><path d="m315.8 177.828-70.374-40.633c-12.946-7.472-27.633-5.82-38.38 1.637L51.88 229.047c10.426-5.957 23.793-6.785 35.68.078l70.375 40.633c33.332 19.242 53.863 54.808 53.863 93.293 0 13.476 14.601 21.879 26.254 15.11l112.043-65.102a39.322 39.322 0 0 0 19.57-34.004v-7.934c0-38.488-20.531-74.05-53.863-93.293zm0 0" fill="#000000" opacity="1" data-original="#0d68be" class=""></path><path d="M0 398.762v-119.07c0-27.579 29.855-44.817 53.738-31.028l70.375 40.633c33.332 19.246 53.867 54.808 53.867 93.297v110.34c0 14.656-15.867 23.816-28.558 16.488l-128.3-74.074A42.245 42.245 0 0 1 0 398.762zM202.95 442.7a26.634 26.634 0 0 1 13.3-23.06l150.762-87.199c9-5.207 20.261 1.29 20.261 11.688a26.639 26.639 0 0 1-13.296 23.059l-150.762 87.199c-9.004 5.21-20.266-1.29-20.266-11.688zm0 0" fill="#000000" opacity="1" data-original="#0d68be" class=""></path></g><path fill="#118c4f" d="m463.906 388.375-96.894-55.938-150.762 87.204a26.63 26.63 0 0 0-13.3 23.058c0 2.559.687 4.88 1.85 6.848l-.007-.004v.004l9.934 5.734 1.62.934 64.669 37.336a46.581 46.581 0 0 0 46.59 0l136.304-78.696c10.192-5.882 10.192-20.593-.004-26.48zM237.82 121.637 205.75 14.19c-3.668-12.293-17.852-17.933-28.96-11.52L19.062 93.735c-11.094 6.407-16.149 19.735-12.09 31.883l36.21 108.453zm0 0" opacity="1" data-original="#e9e9e9" class=""></path><path fill="#118c4f" d="M401.676 253.313c0 7.984-4.856 17.261-10.848 20.722-5.988 3.457-10.844-.215-10.844-8.2 0-7.987 4.856-17.26 10.844-20.722 5.992-3.457 10.848.215 10.848 8.2zm0 0" opacity="1" data-original="#ffd800" class=""></path></g></svg>