<svg width="48" height="49" viewBox="0 0 48 49" fill="none" xmlns="http://www.w3.org/2000/svg">
<path d="M48 24.4997C48 37.755 37.2548 48.5005 24 48.5005C10.7452 48.5005 0 37.755 0 24.4997C0 11.2445 10.7452 0.499023 24 0.499023C37.2548 0.499023 48 11.2445 48 24.4997Z" fill="white"/>
<path d="M24.4971 8L24.2785 8.74339L24.2785 30.3129L24.4971 30.5312L34.4939 24.613L24.4971 8Z" fill="#6B6B6B"/>
<path d="M24.4971 8L14.5 24.613L24.4971 30.5312L24.4971 20.062L24.4971 8Z" fill="#A2A2A2"/>
<path d="M24.4971 32.4269L24.3739 32.5773L24.3739 40.2607L24.4971 40.6207L34.5 26.5117L24.4971 32.4269Z" fill="#4F4E4E"/>
<path d="M24.4971 40.6207L24.4971 32.4269L14.5 26.5117L24.4971 40.6207Z" fill="#A2A2A2"/>
<path d="M24.4971 30.5312L34.4939 24.613L24.4971 20.062L24.4971 30.5312Z" fill="#797979"/>
<path d="M14.5 24.613L24.4971 30.5312L24.4971 20.062L14.5 24.613Z" fill="#D4D4D4"/>
<g style="mix-blend-mode:overlay">
<path d="M24.4971 8L24.2785 8.74339L24.2785 30.3129L24.4971 30.5312L34.4939 24.613L24.4971 8Z" fill="#ACE730"/>
<path d="M24.4971 8L14.5 24.613L24.4971 30.5312L24.4971 20.062L24.4971 8Z" fill="#ACE730"/>
<path d="M24.4971 32.4269L24.3739 32.5773L24.3739 40.2607L24.4971 40.6207L34.5 26.5117L24.4971 32.4269Z" fill="#ACE730"/>
<path d="M24.4971 40.6207L24.4971 32.4269L14.5 26.5117L24.4971 40.6207Z" fill="#ACE730"/>
<path d="M24.4971 30.5312L34.4939 24.613L24.4971 20.062L24.4971 30.5312Z" fill="#ACE730"/>
<path d="M14.5 24.613L24.4971 30.5312L24.4971 20.062L14.5 24.613Z" fill="#ACE730"/>
</g>
</svg>
