<svg width="420" height="210" viewBox="0 0 420 210" fill="none" xmlns="http://www.w3.org/2000/svg">
<path d="M202.537 134.909H162.917V75.0293H177.937V122.369H202.527V134.909H202.537Z" fill="#18191B"/>
<path d="M209.057 134.909V123.929H222.947V86.3993H210.257V75.0293H237.617V123.999H250.377V134.979H209.057V134.909Z" fill="#18191B"/>
<path d="M257.677 121.659C257.677 113.229 263.917 108.339 275.957 107.419L285.457 106.709V103.239C285.457 100.259 283.257 98.4194 279.787 98.4194C276.737 98.4194 274.327 99.9094 273.617 102.179H259.377C260.227 93.1794 268.237 87.6494 280.287 87.6494C292.337 87.6494 299.917 93.3894 299.917 103.739V134.989H286.027V129.249H284.747C282.407 133.289 277.727 135.699 272.137 135.699C263.487 135.699 257.607 130.029 257.607 121.739L257.677 121.669V121.659ZM285.457 117.269V115.139L278.797 115.709C274.257 116.059 271.997 117.689 271.997 120.599C271.997 123.219 274.127 124.849 277.527 124.849C282.347 124.849 285.467 121.869 285.467 117.269H285.457Z" fill="#18191B"/>
<path d="M356.037 134.909H343.847V102.879C343.847 100.899 342.567 99.4789 340.797 99.4789C339.027 99.4789 337.747 100.899 337.747 102.879V134.909H325.767V102.879C325.767 100.819 324.487 99.4789 322.717 99.4789C320.947 99.4789 319.667 100.829 319.667 102.879V134.909H307.477V88.6989H320.167V96.3489H321.727C322.647 90.6089 325.697 87.6289 330.447 87.6289C334.557 87.6289 337.397 90.6089 338.317 95.8489H339.877C340.727 90.6089 343.567 87.6289 347.817 87.6289C352.987 87.6289 355.897 91.3889 355.897 97.9789V134.899H356.037V134.909Z" fill="#18191B"/>
<path d="M361.707 121.659C361.707 113.229 367.947 108.339 379.987 107.419L389.487 106.709V103.239C389.487 100.259 387.287 98.4194 383.817 98.4194C380.767 98.4194 378.357 99.9094 377.647 102.179H363.407C364.257 93.1794 372.267 87.6494 384.317 87.6494C396.367 87.6494 403.947 93.3894 403.947 103.739V134.989H390.057V129.249H388.777C386.437 133.289 381.757 135.699 376.167 135.699C367.517 135.699 361.637 130.029 361.637 121.739L361.707 121.669V121.659ZM389.487 117.269V115.139L382.827 115.709C378.287 116.059 376.027 117.689 376.027 120.599C376.027 123.219 378.157 124.849 381.557 124.849C386.377 124.849 389.497 121.869 389.497 117.269H389.487Z" fill="#18191B"/>
<path d="M182.727 179.32H173.667L171.977 187.19H162.917L173.027 151.39H184.157L194.317 187.19H184.417L182.767 179.32H182.727ZM175.107 172.76H181.327L178.487 159.43H178.017L175.097 172.76H175.107Z" fill="#18191B"/>
<path d="M196.947 187.139V180.579H205.367V166.059H197.667V159.499H213.837V180.529H221.577V187.089H196.947V187.129V187.139ZM204.097 149.769C204.097 146.809 206.217 144.989 209.637 144.989C213.057 144.989 215.177 146.809 215.177 149.769C215.177 152.729 213.057 154.549 209.637 154.549C206.217 154.549 204.097 152.729 204.097 149.769Z" fill="#18191B"/>
<path d="M239.147 181.219H246.767V187.189H225.817V181.219H230.807V165.519H225.307V159.549H239.227V166.659H240.707C242.057 160.949 244.477 158.829 249.597 158.829C251.117 158.829 252.437 158.999 253.487 159.379V168.309C252.257 167.799 250.437 167.509 248.827 167.509C241.967 167.509 239.137 169.709 239.137 175.039V181.219H239.147Z" fill="#18191B"/>
<path d="M264.497 166.449H257.177V159.929H264.497V158.449C264.497 151.679 267.167 149.439 275.157 149.439H283.407V155.319H275.447C273.837 155.319 273.037 156.169 273.037 157.769V159.929H283.447V166.449H273.287V187.149H264.527V166.449H264.487H264.497Z" fill="#18191B"/>
<path d="M286.797 175.549V171.189C286.797 163.609 291.917 158.919 300.087 158.919C308.257 158.919 313.377 163.619 313.377 171.189V175.549C313.377 183.129 308.257 187.819 300.087 187.819C291.917 187.819 286.797 183.119 286.797 175.549ZM295.387 171.439V175.329C295.387 178.929 297.207 181.209 300.087 181.209C302.967 181.209 304.787 178.919 304.787 175.329V171.439C304.787 167.839 302.967 165.559 300.087 165.559C297.207 165.559 295.387 167.849 295.387 171.439Z" fill="#18191B"/>
<path d="M330.307 181.219H337.927V187.189H316.977V181.219H321.967V165.519H316.467V159.549H330.387V166.659H331.867C333.217 160.949 335.637 158.829 340.757 158.829C342.277 158.829 343.597 158.999 344.647 159.379V168.309C343.417 167.799 341.597 167.509 339.987 167.509C333.127 167.509 330.297 169.709 330.297 175.039V181.219H330.307Z" fill="#18191B"/>
<path d="M365.517 169.789C365.137 166.789 363.907 165.559 361.367 165.559C358.527 165.559 356.967 168.059 356.967 172.589V174.069C356.967 178.599 358.537 181.099 361.367 181.099C363.947 181.099 365.087 179.999 365.517 177.159H374.067C373.517 184.269 369.327 187.819 361.367 187.819C352.737 187.819 348.167 183.249 348.167 174.569V172.069C348.167 163.389 352.737 158.819 361.367 158.819C369.327 158.819 373.467 162.419 374.067 169.819H365.517V169.779V169.789Z" fill="#18191B"/>
<path d="M403.947 179.019C403.567 184.099 398.277 187.779 391.417 187.779C382.997 187.779 378.217 183.339 378.217 175.459V170.889C378.217 163.649 383.507 158.869 391.417 158.869C398.827 158.869 403.897 163.689 403.897 170.799V175.239H386.757V176.929C386.757 179.639 388.617 181.499 391.367 181.499C393.567 181.499 395.477 180.399 395.767 178.959H403.937V178.999L403.947 179.019ZM386.767 170.259H395.527C395.527 167.039 393.917 165.139 391.207 165.139C388.497 165.139 386.767 167.089 386.767 170.259Z" fill="#18191B"/>
<path d="M30.1372 163.759C28.3172 163.219 25.0772 159.679 25.4172 157.819C26.0672 154.189 26.2172 152.729 26.8872 149.109C27.0872 148.029 23.8172 145.899 22.6672 145.439C21.4672 144.959 19.5372 136.149 19.9972 135.099C21.5672 131.529 25.1172 130.369 26.8272 126.869C27.5572 125.379 30.5672 128.719 30.2772 127.059C30.0172 125.629 32.7472 123.359 32.6372 121.759C34.0072 121.549 38.4472 121.939 39.7872 121.729C39.9872 122.669 41.6572 123.859 41.7672 124.629C42.5272 129.899 40.9672 134.379 44.6272 138.039C47.9972 141.399 51.8072 144.089 56.4372 145.369C63.7172 147.399 70.3072 145.439 76.4672 141.539C82.6172 137.649 86.5972 131.929 89.6872 125.509C90.2772 124.279 90.8072 123.769 92.2972 124.169C95.4972 125.029 98.7672 125.649 102.017 126.349C103.787 126.739 105.057 127.639 105.727 129.419C106.297 130.949 107.107 132.389 107.727 133.899C108.117 134.839 108.627 135.099 109.667 134.939C112.467 134.499 112.467 134.559 113.057 137.369C113.307 138.559 113.497 139.759 113.847 140.919C113.957 141.269 115.487 141.079 115.497 140.739C115.557 139.369 115.647 137.969 115.447 136.629C114.897 132.979 117.277 130.939 119.657 128.519C120.287 130.109 120.847 131.499 121.377 132.899C122.547 136.009 123.667 139.139 124.877 142.229C125.227 143.129 125.207 143.749 124.537 144.509C122.727 146.569 121.017 148.699 119.667 150.319C117.327 150.309 115.417 150.119 113.567 150.379C112.817 150.489 112.147 151.519 111.557 152.219C109.327 154.889 109.347 154.909 106.127 153.579C106.077 153.559 106.027 153.549 105.977 153.519C99.2772 149.259 91.7872 150.309 84.4572 150.309C84.1172 150.309 83.5872 150.799 83.4872 151.159C83.2372 152.039 83.8172 152.279 84.6272 152.409C90.6972 153.379 96.5372 155.169 102.197 157.569C102.977 157.899 103.757 158.239 104.467 158.689C106.617 160.019 108.917 159.839 111.207 159.349C111.827 159.219 112.397 158.549 112.857 158.009C113.987 156.709 115.037 155.339 116.297 153.759C117.187 155.169 117.927 156.309 118.637 157.469C119.577 159.009 120.877 159.199 122.167 157.899C122.707 157.359 123.107 156.679 123.567 156.049C127.487 160.259 124.177 169.639 116.477 169.969C116.867 168.849 117.227 167.799 117.617 166.679C116.217 166.299 115.087 166.329 114.147 167.369C113.937 167.599 113.637 167.759 113.437 167.999C111.647 170.149 109.377 171.099 106.607 170.569C105.557 170.369 104.387 170.189 103.547 169.609C98.7572 166.319 93.9672 163.029 88.4072 161.109C86.5172 160.459 84.5672 159.939 82.6772 159.289C81.3772 158.839 80.8272 159.539 80.4172 160.569C79.9672 161.709 81.0272 161.699 81.5672 162.059C85.6372 164.699 89.7072 167.339 93.7872 169.959C94.8472 170.639 104.617 175.579 103.727 176.139C101.327 177.639 93.9972 185.229 91.4272 186.349C83.3072 189.909 69.7172 180.639 60.9572 180.749C60.0772 180.759 59.1972 180.749 58.1172 180.749C58.2972 182.509 58.4972 184.019 58.5872 185.529C58.6172 186.049 58.5072 186.949 58.2572 187.029C57.5872 187.239 56.6472 187.369 56.0972 187.049C54.6472 186.199 53.3172 185.139 51.9972 184.089C42.9872 176.929 37.2372 167.699 34.6672 156.489C34.5572 156.029 34.6272 155.499 34.4272 155.099C34.1372 154.509 33.8372 155.439 33.6572 155.969C33.0272 157.809 33.7372 160.089 33.2072 161.969C33.0772 162.419 30.2872 163.219 30.1472 163.759H30.1372Z" fill="white"/>
<path d="M107.947 93.4388C105.397 95.3388 103.087 97.4188 99.2873 96.6488C95.0673 95.7888 90.7373 95.1688 86.4473 95.1088C74.7973 94.9388 63.1373 95.1288 51.4773 95.1688C48.3573 95.1788 46.4974 93.0988 46.7674 89.9588C47.0174 87.0688 47.2073 84.1788 47.4573 81.2888C47.5173 80.5688 49.3473 68.4088 50.1473 65.9188C50.4473 64.9688 50.7973 64.0288 51.1373 63.0888C51.7373 61.4288 52.7673 60.1888 54.4273 59.4488C56.2073 58.6588 57.9473 57.7588 59.6773 56.8688C60.7773 56.2988 108.067 93.1888 107.957 93.4388H107.947Z" fill="white"/>
<path d="M59.9472 54.499L49.4772 57.439L43.8072 62.739L42.3872 94.269L53.8172 97.269H101.047C101.047 97.269 109.407 96.249 108.517 93.499C107.627 90.759 66.0672 58.199 66.0672 58.199L59.9372 54.499H59.9472Z" fill="#F01010"/>
<path d="M37.0972 83.1296C35.5972 79.4696 34.0671 75.9396 32.6872 72.3596C30.8271 67.5396 28.9071 62.7396 27.3171 57.8396C25.5771 52.4796 25.2871 46.9096 25.3271 41.2696C25.3571 37.6896 26.3371 34.8396 28.4671 31.9996C32.0071 27.2796 36.1872 23.1996 40.3772 19.1096C40.6272 18.8596 45.1972 40.6096 43.5772 44.5196C40.7372 51.3896 38.2071 58.3696 36.6471 65.6896C35.6871 70.1596 37.1571 74.2496 37.8271 78.4796C37.9371 79.2096 38.1872 79.9096 38.3772 80.6296C38.7672 82.1396 38.7471 82.1996 37.1071 83.1296H37.0972Z" fill="white"/>
<path d="M99.5273 80.8195C99.1173 80.0095 98.7773 79.5595 98.6673 79.0595C97.4373 73.5595 96.2773 68.0495 95.0173 62.5595C94.8573 61.8495 94.4373 60.9795 93.8573 60.5995C87.7373 56.5695 84.4673 50.5595 82.0073 43.9395C80.7973 40.6795 79.4373 37.4695 78.2473 34.2095C78.0073 33.5395 77.9873 32.5795 78.2873 31.9595C79.7973 28.8395 84.1773 23.1995 84.6173 23.5295C88.5773 26.5295 91.7073 30.1695 94.3073 34.4495C96.9073 38.7395 99.6373 42.9395 101.357 47.6795C105.247 58.4395 104.957 69.0795 100.217 79.5395C100.087 79.8195 99.9273 80.0895 99.5273 80.8195V80.8195Z" fill="white"/>
<path d="M116.817 120.799H91.9673C92.3373 119.699 92.5673 118.559 93.0673 117.559C94.1173 115.449 95.1273 113.269 96.4873 111.359C98.5073 108.499 102.497 107.399 106.217 108.949C111.347 111.099 114.897 114.939 116.817 120.799V120.799Z" fill="white"/>
<path opacity="0.2" d="M44.3572 127.939C44.3572 127.939 35.6672 146.139 38.7372 157.369C41.7972 168.599 50.5672 174.299 64.2272 172.899C76.7072 171.619 80.3472 160.819 80.3472 160.819L84.1472 160.489L100.017 170.579L97.8072 182.389C97.8072 182.389 74.7172 186.099 66.9272 187.249C59.1372 188.399 57.9072 190.119 55.8672 189.099C53.8272 188.079 34.8072 164.969 34.4172 164.589C34.0272 164.209 26.9372 170.019 26.9372 168.359C26.9372 166.699 23.6672 158.709 23.5372 156.789C23.4072 154.879 22.6472 139.299 22.6472 139.299L25.9672 120.329L30.5672 114.049C30.5672 114.049 46.2672 104.949 44.3572 127.929V127.939Z" fill="#18191B"/>
<path opacity="0.2" d="M84.6372 152.409C84.6372 152.409 98.1772 156.489 103.027 160.639C107.877 164.789 114.897 161.089 115.797 159.619C116.687 158.149 120.977 161.059 117.627 166.689C114.277 172.319 115.037 174.299 115.037 174.299C115.037 174.299 124.867 170.789 125.697 164.789C126.527 158.789 125.697 155.279 125.697 155.279L124.417 153.299C124.417 153.299 128.567 147.169 127.357 143.019C126.147 138.869 118.807 123.919 118.807 123.919L115.237 128.149L114.217 136.639L115.507 140.739L118.277 142.259C119.817 143.109 121.027 144.539 121.407 146.259C121.877 148.399 121.197 151.149 115.947 152.979C109.127 155.359 110.117 161.089 104.417 156.939C98.7172 152.789 91.6772 151.069 84.6672 152.409H84.6372Z" fill="#18191B"/>
<path opacity="0.2" d="M91.9572 120.799C91.9572 120.799 95.8272 112.339 103.267 112.389C108.587 112.429 112.097 120.799 112.097 120.799H116.807C116.807 120.799 120.277 121.019 117.207 114.519C114.137 108.019 100.947 106.659 100.947 106.659L91.4172 108.959L91.9472 120.799H91.9572Z" fill="#18191B"/>
<path opacity="0.2" d="M26.5473 35.2291C26.5473 35.2291 26.7973 53.8791 31.7673 55.1691C38.3173 56.8591 39.2973 22.8791 38.7673 20.6791C38.2373 18.4891 40.2573 16.8291 40.2573 16.8291C40.2573 16.8291 47.8073 23.0891 45.8973 45.6791C43.9873 68.2791 40.7873 62.3991 41.1773 74.6591C41.5573 86.9191 38.1173 91.1291 38.1173 91.1291L34.1573 84.1591L29.1773 69.1391L24.1973 51.1191V40.1891C24.1973 40.1891 23.5573 30.0991 26.4973 34.6991" fill="#18191B"/>
<path opacity="0.2" d="M77.3472 28.1893C77.3472 28.1893 81.8372 45.2993 91.0672 53.4693C100.287 61.6393 102.847 64.0893 98.3772 51.1193C93.9072 38.1493 84.2072 24.6293 81.2672 22.3193C81.2672 22.3193 82.9273 19.8893 85.3573 22.3193C87.7873 24.7493 101.447 39.4393 104.057 51.1193C106.677 62.7993 103.647 80.5993 100.927 83.1293C98.2072 85.6593 91.0672 73.1293 91.0672 73.1293L85.8672 59.5993L80.3672 45.5593L75.1772 33.0493L77.3573 28.1993L77.3472 28.1893Z" fill="#18191B"/>
<path opacity="0.2" d="M53.2873 60.0995C53.2873 60.0995 49.2273 62.5995 58.3373 69.5195C64.7973 74.4195 58.1173 81.5195 72.3173 83.4995C86.5173 85.4795 91.0273 90.4495 95.8273 92.5295C100.627 94.6095 105.087 95.7195 107.947 93.4395C107.947 93.4395 112.547 97.3795 99.1473 98.2695C85.7473 99.1595 48.9673 103.499 46.5473 95.4595C44.1273 87.4195 45.3973 82.7795 45.3973 82.7795C45.3973 82.7795 45.1173 55.3595 53.2873 60.0895V60.0995Z" fill="#18191B"/>
<path d="M126.057 135.019C127.157 137.779 128.027 140.099 129.007 142.359C129.477 143.439 129.537 144.349 128.747 145.279C126.317 148.139 125.897 151.179 127.967 154.389C130.207 157.869 130.157 162.299 128.127 165.899C126.717 168.389 126.107 171.319 125.007 173.999C124.767 174.589 124.057 175.219 123.457 175.419C122.217 175.839 120.887 176.089 119.577 176.219C116.857 176.439 115.517 177.969 113.727 180.969C96.5973 203.739 66.0973 187.239 64.2473 190.219C67.3073 204.179 37.8373 186.199 33.9173 171.899C32.7273 167.559 32.7073 175.729 29.2473 173.979C19.1173 168.839 23.0173 148.869 21.7473 148.159C20.7673 147.609 20.8273 152.289 18.1473 150.839C14.7873 149.029 14.8273 132.049 23.0773 123.099C24.6873 120.839 24.5973 120.569 22.4773 118.649C20.9673 117.279 20.4973 115.099 21.3073 113.229C22.0573 111.489 22.9173 109.789 23.5673 108.009C24.0173 106.749 24.7273 106.389 26.0373 106.389C38.1273 106.259 52.6873 106.319 55.3673 105.109C57.5773 104.109 36.9273 104.169 35.2573 103.199C33.1973 101.999 28.5273 99.8891 26.5173 98.9591C26.1073 98.7691 26.0573 98.2191 26.3973 97.9391C27.8073 96.7991 29.0773 95.7491 30.4073 94.7891C31.2773 94.1591 31.6473 93.4991 31.5373 92.4091C30.9273 86.4791 30.4973 80.5291 29.7273 74.6191C29.4273 72.3591 28.5273 70.1491 27.6573 68.0191C25.0073 61.5191 23.1773 54.7991 22.5873 47.8291C22.2473 43.8091 22.5073 39.7091 22.8173 35.6691C22.9173 34.3291 23.8173 32.9091 24.6873 31.7791C26.8773 28.9391 29.1073 26.1091 31.5873 23.5291C34.3173 20.6791 37.3073 18.0791 40.2373 15.4191C41.3973 14.3691 42.9473 14.5591 43.7773 15.8491C45.7073 18.8691 47.5973 21.9191 49.4273 25.0091C49.7773 25.5991 49.8573 26.4191 49.8473 27.1291C49.8173 31.4691 49.7973 35.7991 49.5973 40.1291C49.5273 41.5791 49.1273 42.9891 48.4673 44.2891C47.6573 45.8791 47.3273 47.3491 47.8273 49.1191C48.4573 51.3291 48.8273 53.6191 49.3373 56.0091C52.3973 54.8991 55.3073 53.9791 58.0873 52.7691C59.5973 52.1091 60.7473 52.1791 62.0373 53.1191C68.2673 57.6391 74.5273 62.1191 80.7873 66.6191C81.0773 66.8291 81.3773 67.0291 81.6473 67.2191C81.8073 67.1291 81.9573 67.0891 81.9673 67.0291C82.6673 61.4191 83.3473 55.8691 80.8573 50.4091C78.3573 44.9391 76.1773 39.3291 73.9273 33.7591C73.6873 33.1591 73.6673 32.1791 73.8873 31.5791C75.4273 27.3991 77.0473 23.2491 78.6973 19.0991C79.1873 17.8691 81.0773 17.6591 82.2973 18.6391C88.9373 23.9591 94.7273 30.0391 99.0373 37.4491C101.477 41.6291 104.187 45.6391 105.297 50.5091C106.837 57.2491 107.227 64.0091 105.787 70.7591C104.937 74.7591 103.517 78.6291 102.447 82.5791C102.317 83.0791 102.607 83.8791 102.977 84.2991C105.297 86.9591 107.737 89.5291 110.057 92.1891C111.457 93.7891 111.407 94.2491 109.897 95.7791C109.087 96.5891 108.137 97.2591 107.087 98.1291L109.987 101.959C110.237 102.289 110.157 102.749 109.787 102.949C108.057 103.859 107.217 106.449 108.707 106.449C121.167 106.399 131.617 106.419 144.077 106.419C145.467 106.419 146.607 107.529 146.637 108.919C146.797 115.909 145.727 122.719 142.797 129.079C141.767 131.309 140.097 133.449 138.217 135.019C135.087 137.619 131.377 137.369 127.747 135.809C127.327 135.629 126.917 135.419 126.067 135.019H126.057ZM30.9973 162.389C32.5373 161.199 32.3173 156.739 32.9573 154.899C33.1473 154.359 34.1373 154.509 34.4273 155.099C34.6273 155.499 34.5673 156.029 34.6673 156.489C37.2373 167.699 42.9873 176.919 51.9973 184.089C53.3173 185.139 54.6473 186.209 56.0973 187.049C56.6473 187.369 57.5873 187.239 58.2573 187.029C58.5073 186.949 58.6173 186.049 58.5873 185.529C58.4973 184.019 58.2973 182.509 58.1173 180.749C59.1973 180.749 60.0773 180.749 60.9573 180.749C69.7173 180.639 81.3673 185.799 89.4873 182.249C92.0573 181.119 94.3773 179.409 96.7673 177.899C97.6573 177.339 97.8473 176.639 96.7873 175.959C92.7073 173.339 85.6373 164.699 81.5673 162.059C81.0173 161.709 79.9573 161.719 80.4173 160.569C80.8273 159.539 81.3773 158.849 82.6773 159.289C84.5773 159.939 86.5173 160.449 88.4073 161.109C93.9573 163.029 98.7473 166.309 103.547 169.609C104.397 170.189 105.557 170.379 106.607 170.569C109.377 171.089 111.647 170.149 113.437 167.999C113.637 167.759 113.937 167.609 114.147 167.369C115.087 166.329 116.217 166.299 117.617 166.679C117.227 167.799 116.867 168.849 116.477 169.969C124.167 169.629 127.487 160.259 123.567 156.049C123.097 156.679 122.697 157.359 122.167 157.899C120.877 159.199 119.587 159.009 118.637 157.469C117.927 156.309 117.187 155.169 116.297 153.759C115.027 155.329 113.977 156.699 112.857 158.009C112.397 158.539 111.827 159.219 111.207 159.349C108.947 159.829 106.667 160.019 104.547 158.739C103.847 158.319 102.827 157.839 102.067 157.519C96.4573 155.149 90.6573 153.379 84.6373 152.419C83.8273 152.289 83.2473 152.049 83.4973 151.169C83.5973 150.809 84.1273 150.319 84.4673 150.319C91.7973 150.319 99.2973 149.269 105.987 153.529C106.027 153.559 106.087 153.569 106.137 153.589C109.357 154.909 109.337 154.899 111.567 152.229C112.157 151.519 112.827 150.489 113.577 150.389C115.427 150.129 117.327 150.319 119.677 150.329C121.027 148.709 122.737 146.579 124.547 144.519C125.207 143.769 125.237 143.139 124.887 142.239C123.667 139.149 122.557 136.019 121.387 132.909C120.857 131.509 120.287 130.119 119.667 128.529C117.287 130.949 114.907 132.979 115.457 136.639C115.657 137.979 115.567 139.379 115.507 140.749C115.497 141.099 115.637 141.639 114.897 141.769C114.157 141.899 113.967 141.289 113.857 140.929C113.497 139.779 113.317 138.569 113.067 137.379C112.477 134.569 112.467 134.509 109.677 134.949C108.637 135.109 108.127 134.849 107.737 133.909C107.117 132.399 106.317 130.959 105.737 129.429C104.967 127.379 103.397 126.489 101.187 126.219C98.1773 125.849 95.2473 124.969 92.3173 124.179C90.8273 123.779 90.2973 124.279 89.7073 125.519C86.6173 131.939 82.6273 137.659 76.4873 141.549C70.3273 145.449 63.7473 147.409 56.4573 145.379C51.8273 144.089 48.0173 141.409 44.6473 138.049C40.9873 134.399 38.1373 130.289 37.3773 125.019V124.999C37.1773 123.629 35.8573 122.719 34.4973 122.929H34.4573C33.5973 123.069 32.9773 123.829 33.0173 124.699C33.0573 125.739 33.0973 126.729 33.2773 127.699C33.5773 129.359 30.8173 130.749 28.1373 133.649C25.4573 136.549 22.6973 141.519 25.1873 145.649C26.8373 148.379 29.5073 147.319 29.3073 148.399C28.6373 152.019 26.7773 152.709 27.6473 158.589C27.9273 160.459 29.4773 163.619 31.0373 162.419L30.9973 162.389ZM107.947 93.4391C108.057 93.1891 60.7673 56.2891 59.6673 56.8691C57.9373 57.7691 56.1973 58.6591 54.4173 59.4491C52.7573 60.1891 51.7273 61.4291 51.1273 63.0891C50.7873 64.0291 50.4373 64.9691 50.1373 65.9191C49.3373 68.4091 47.5073 80.5691 47.4473 81.2891C47.2073 84.1791 47.0073 87.0691 46.7573 89.9591C46.4873 93.0991 48.3473 95.1791 51.4673 95.1691C63.1273 95.1291 74.7873 94.9391 86.4373 95.1091C90.7273 95.1691 95.0673 95.7991 99.2773 96.6491C103.087 97.4191 105.387 95.3391 107.937 93.4391H107.947ZM37.0973 83.1191C38.7373 82.1891 38.7573 82.1291 38.3673 80.6191C38.1773 79.9091 37.9373 79.1991 37.8173 78.4691C37.1573 74.2391 35.6873 70.1491 36.6373 65.6791C38.2073 58.3591 40.7373 51.3791 43.5673 44.5091C44.6273 41.9491 42.9273 31.8591 41.6273 25.1891C41.1073 22.5291 37.8273 21.5491 35.9273 23.4791C33.2773 26.1591 30.7373 28.9391 28.4473 31.9891C26.3173 34.8291 25.3373 37.6791 25.3073 41.2591C25.2673 46.8991 25.5473 52.4691 27.2973 57.8291C28.8873 62.7391 30.8073 67.5391 32.6673 72.3491C34.0573 75.9291 35.5773 79.4691 37.0773 83.1191H37.0973ZM99.5273 80.8091C99.9173 80.0791 100.087 79.8091 100.217 79.5291C104.967 69.0691 105.257 58.4291 101.357 47.6691C99.6473 42.9291 96.9173 38.7291 94.3073 34.4391C92.3273 31.1791 90.0373 28.2891 87.3073 25.7691C85.8873 24.4591 83.6673 24.5691 82.4373 26.0491C80.9573 27.8391 79.1173 30.2291 78.2873 31.9491C77.9873 32.5691 77.9973 33.5291 78.2473 34.1991C79.4373 37.4691 80.7973 40.6691 82.0073 43.9291C84.4673 50.5491 87.7373 56.5591 93.8573 60.5891C94.4373 60.9691 94.8573 61.8291 95.0173 62.5491C96.2773 68.0391 97.4373 73.5491 98.6673 79.0491C98.7773 79.5491 99.1273 79.9991 99.5273 80.8091V80.8091ZM116.817 120.799C114.897 114.939 111.347 111.099 106.217 108.949C102.487 107.389 98.5073 108.489 96.4873 111.359C95.1373 113.279 94.1173 115.449 93.0673 117.559C92.5673 118.559 92.3273 119.699 91.9673 120.799H116.817V120.799Z" fill="#18191B"/>
<path d="M65.5074 90.3077L53.2874 88.5477L57.4474 84.3877L69.7174 86.0977L65.5074 90.3077Z" fill="#FFBA00"/>
<path d="M51.5374 76.3282L53.2874 88.5482L57.4474 84.3882L55.7474 72.1182L51.5374 76.3282Z" fill="#FFBA00"/>
<path d="M72.3174 83.4981L60.0974 81.7381L64.2574 77.5781L76.5274 79.2881L72.3174 83.4981Z" fill="#FFBA00"/>
<path d="M58.3474 69.5186L60.0974 81.7386L64.2574 77.5786L62.5474 65.3086L58.3474 69.5186Z" fill="#FFBA00"/>
</svg>
