<svg width="421" height="211" viewBox="0 0 421 211" fill="none" xmlns="http://www.w3.org/2000/svg">
<path d="M204.516 134.968H164.896V75.0879H179.916V122.428H204.506V134.968H204.516Z" fill="white"/>
<path d="M211.036 134.968V123.988H224.926V86.4579H212.236V75.0879H239.596V124.058H252.356V135.038H211.036V134.968V134.968Z" fill="white"/>
<path d="M259.656 121.718C259.656 113.288 265.896 108.398 277.936 107.478L287.436 106.768V103.298C287.436 100.318 285.236 98.478 281.766 98.478C278.716 98.478 276.306 99.968 275.596 102.238H261.356C262.206 93.238 270.216 87.708 282.266 87.708C294.316 87.708 301.896 93.448 301.896 103.798V135.048H288.006V129.308H286.726C284.386 133.348 279.706 135.758 274.116 135.758C265.466 135.758 259.586 130.088 259.586 121.798L259.656 121.728V121.718ZM287.436 117.328V115.198L280.776 115.768C276.236 116.118 273.976 117.748 273.976 120.658C273.976 123.278 276.106 124.908 279.506 124.908C284.326 124.908 287.446 121.928 287.446 117.328H287.436Z" fill="white"/>
<path d="M358.016 134.967H345.826V102.938C345.826 100.957 344.546 99.5375 342.776 99.5375C341.006 99.5375 339.726 100.957 339.726 102.938V134.967H327.746V102.938C327.746 100.878 326.466 99.5375 324.696 99.5375C322.926 99.5375 321.646 100.888 321.646 102.938V134.967H309.456V88.7575H322.146V96.4075H323.706C324.626 90.6675 327.676 87.6875 332.426 87.6875C336.536 87.6875 339.376 90.6675 340.296 95.9075H341.856C342.706 90.6675 345.546 87.6875 349.796 87.6875C354.966 87.6875 357.876 91.4475 357.876 98.0375V134.957H358.016V134.967Z" fill="white"/>
<path d="M363.686 121.718C363.686 113.288 369.926 108.398 381.966 107.478L391.466 106.768V103.298C391.466 100.318 389.266 98.478 385.796 98.478C382.746 98.478 380.336 99.968 379.626 102.238H365.386C366.236 93.238 374.246 87.708 386.296 87.708C398.346 87.708 405.926 93.448 405.926 103.798V135.048H392.036V129.308H390.756C388.416 133.348 383.736 135.758 378.146 135.758C369.496 135.758 363.616 130.088 363.616 121.798L363.686 121.728V121.718ZM391.466 117.328V115.198L384.806 115.768C380.266 116.118 378.006 117.748 378.006 120.658C378.006 123.278 380.136 124.908 383.536 124.908C388.356 124.908 391.476 121.928 391.476 117.328H391.466Z" fill="white"/>
<path d="M184.706 179.367H175.646L173.956 187.237H164.896L175.006 151.438H186.136L196.296 187.237H186.396L184.746 179.367H184.706V179.367ZM177.086 172.807H183.306L180.466 159.477H179.996L177.076 172.807H177.086Z" fill="white"/>
<path d="M198.926 187.198V180.638H207.346V166.118H199.646V159.558H215.816V180.588H223.556V187.148H198.926V187.188V187.198ZM206.076 149.828C206.076 146.868 208.196 145.048 211.616 145.048C215.036 145.048 217.156 146.868 217.156 149.828C217.156 152.788 215.036 154.608 211.616 154.608C208.196 154.608 206.076 152.788 206.076 149.828Z" fill="white"/>
<path d="M241.126 181.278H248.746V187.248H227.796V181.278H232.786V165.578H227.286V159.608H241.206V166.718H242.686C244.036 161.008 246.456 158.888 251.576 158.888C253.096 158.888 254.416 159.058 255.466 159.438V168.368C254.236 167.858 252.416 167.568 250.806 167.568C243.946 167.568 241.116 169.768 241.116 175.098V181.278H241.126Z" fill="white"/>
<path d="M266.476 166.508H259.156V159.988H266.476V158.508C266.476 151.738 269.146 149.498 277.136 149.498H285.386V155.378H277.426C275.816 155.378 275.016 156.228 275.016 157.828V159.988H285.426V166.508H275.266V187.208H266.506V166.508H266.466H266.476Z" fill="white"/>
<path d="M288.776 175.608V171.248C288.776 163.668 293.896 158.978 302.066 158.978C310.236 158.978 315.356 163.678 315.356 171.248V175.608C315.356 183.188 310.236 187.878 302.066 187.878C293.896 187.878 288.776 183.178 288.776 175.608ZM297.366 171.498V175.388C297.366 178.988 299.186 181.268 302.066 181.268C304.946 181.268 306.766 178.978 306.766 175.388V171.498C306.766 167.898 304.946 165.618 302.066 165.618C299.186 165.618 297.366 167.908 297.366 171.498Z" fill="white"/>
<path d="M332.286 181.278H339.906V187.248H318.956V181.278H323.946V165.578H318.446V159.608H332.366V166.718H333.846C335.196 161.008 337.616 158.888 342.736 158.888C344.256 158.888 345.576 159.058 346.626 159.438V168.368C345.396 167.858 343.576 167.568 341.966 167.568C335.106 167.568 332.276 169.768 332.276 175.098V181.278H332.286Z" fill="white"/>
<path d="M367.496 169.848C367.116 166.848 365.886 165.618 363.346 165.618C360.506 165.618 358.946 168.118 358.946 172.648V174.128C358.946 178.658 360.516 181.158 363.346 181.158C365.926 181.158 367.066 180.058 367.496 177.218H376.046C375.496 184.328 371.306 187.878 363.346 187.878C354.716 187.878 350.146 183.308 350.146 174.628V172.128C350.146 163.448 354.716 158.878 363.346 158.878C371.306 158.878 375.446 162.478 376.046 169.878H367.496V169.838V169.848Z" fill="white"/>
<path d="M405.926 179.078C405.546 184.158 400.256 187.838 393.396 187.838C384.976 187.838 380.196 183.398 380.196 175.518V170.948C380.196 163.708 385.486 158.928 393.396 158.928C400.806 158.928 405.876 163.748 405.876 170.858V175.298H388.736V176.988C388.736 179.698 390.596 181.558 393.346 181.558C395.546 181.558 397.456 180.458 397.746 179.018H405.916V179.058L405.926 179.078ZM388.746 170.318H397.506C397.506 167.098 395.896 165.198 393.186 165.198C390.476 165.198 388.746 167.148 388.746 170.318V170.318Z" fill="white"/>
<path d="M32.1162 163.817C30.2962 163.277 27.0562 159.737 27.3962 157.877C28.0462 154.247 28.1962 152.787 28.8662 149.167C29.0662 148.087 25.7962 145.957 24.6462 145.497C23.4462 145.017 21.5162 136.207 21.9762 135.157C23.5462 131.587 27.0962 130.427 28.8062 126.927C29.5362 125.437 32.5462 128.777 32.2562 127.117C31.9962 125.687 34.7262 123.417 34.6162 121.817C35.9862 121.607 40.4262 121.997 41.7662 121.787C41.9662 122.727 43.6362 123.917 43.7462 124.687C44.5062 129.957 42.9462 134.437 46.6062 138.097C49.9762 141.457 53.7862 144.147 58.4162 145.427C65.6962 147.457 72.2862 145.497 78.4462 141.597C84.5962 137.707 88.5762 131.987 91.6662 125.567C92.2562 124.337 92.7862 123.827 94.2762 124.227C97.4762 125.087 100.746 125.707 103.996 126.407C105.766 126.797 107.036 127.697 107.706 129.477C108.276 131.007 109.086 132.447 109.706 133.957C110.096 134.897 110.606 135.157 111.646 134.997C114.446 134.557 114.446 134.617 115.036 137.427C115.286 138.617 115.476 139.817 115.826 140.977C115.936 141.327 117.466 141.137 117.476 140.797C117.536 139.427 117.626 138.027 117.426 136.687C116.876 133.037 119.256 130.997 121.636 128.577C122.266 130.167 122.826 131.557 123.356 132.957C124.526 136.067 125.646 139.197 126.856 142.287C127.206 143.187 127.186 143.807 126.516 144.567C124.706 146.627 122.996 148.757 121.646 150.377C119.306 150.367 117.396 150.177 115.546 150.437C114.796 150.547 114.126 151.577 113.536 152.277C111.306 154.947 111.326 154.967 108.106 153.637C108.056 153.617 108.006 153.607 107.956 153.577C101.256 149.317 93.7662 150.367 86.4362 150.367C86.0962 150.367 85.5662 150.857 85.4662 151.217C85.2162 152.097 85.7962 152.337 86.6062 152.467C92.6762 153.437 98.5162 155.227 104.176 157.627C104.956 157.957 105.736 158.297 106.446 158.747C108.596 160.077 110.896 159.897 113.186 159.407C113.806 159.277 114.376 158.607 114.836 158.067C115.966 156.767 117.016 155.397 118.276 153.817C119.166 155.227 119.906 156.367 120.616 157.527C121.556 159.067 122.856 159.257 124.146 157.957C124.686 157.417 125.086 156.737 125.546 156.107C129.466 160.317 126.156 169.697 118.456 170.027C118.846 168.907 119.206 167.857 119.596 166.737C118.196 166.357 117.066 166.387 116.126 167.427C115.916 167.657 115.616 167.817 115.416 168.057C113.626 170.207 111.356 171.157 108.586 170.627C107.536 170.427 106.366 170.247 105.526 169.667C100.736 166.377 95.9462 163.087 90.3862 161.167C88.4962 160.517 86.5462 159.997 84.6562 159.347C83.3562 158.897 82.8062 159.597 82.3962 160.627C81.9462 161.767 83.0062 161.757 83.5462 162.117C87.6162 164.757 91.6862 167.397 95.7662 170.017C96.8262 170.697 106.596 175.637 105.706 176.197C103.306 177.697 95.9762 185.287 93.4062 186.407C85.2862 189.967 71.6962 180.697 62.9362 180.807C62.0562 180.817 61.1762 180.807 60.0962 180.807C60.2762 182.567 60.4762 184.077 60.5662 185.587C60.5962 186.107 60.4862 187.007 60.2362 187.087C59.5662 187.297 58.6262 187.427 58.0762 187.107C56.6262 186.257 55.2962 185.197 53.9762 184.147C44.9662 176.987 39.2162 167.757 36.6462 156.547C36.5362 156.087 36.6062 155.557 36.4062 155.157C36.1162 154.567 35.8162 155.497 35.6362 156.027C35.0062 157.867 35.7162 160.147 35.1862 162.027C35.0562 162.477 32.2662 163.277 32.1262 163.817H32.1162Z" fill="white"/>
<path d="M109.926 93.4974C107.376 95.3974 105.066 97.4774 101.266 96.7074C97.0463 95.8474 92.7163 95.2274 88.4263 95.1674C76.7763 94.9974 65.1163 95.1874 53.4563 95.2274C50.3363 95.2374 48.4764 93.1574 48.7464 90.0174C48.9964 87.1274 49.1863 84.2374 49.4363 81.3474C49.4963 80.6274 51.3263 68.4674 52.1263 65.9774C52.4263 65.0274 52.7763 64.0874 53.1163 63.1474C53.7163 61.4874 54.7463 60.2474 56.4063 59.5074C58.1863 58.7174 59.9263 57.8174 61.6563 56.9274C62.7563 56.3574 110.046 93.2474 109.936 93.4974H109.926Z" fill="white"/>
<path d="M61.9262 54.5576L51.4562 57.4976L45.7862 62.7976L44.3662 94.3276L55.7962 97.3276H103.026C103.026 97.3276 111.386 96.3076 110.496 93.5576C109.606 90.8176 68.0462 58.2576 68.0462 58.2576L61.9162 54.5576H61.9262Z" fill="#18191B"/>
<path d="M39.0764 83.1882C37.5764 79.5282 36.0464 75.9982 34.6664 72.4182C32.8064 67.5982 30.8864 62.7982 29.2964 57.8982C27.5564 52.5382 27.2664 46.9682 27.3064 41.3282C27.3364 37.7482 28.3164 34.8982 30.4464 32.0582C33.9864 27.3382 38.1664 23.2582 42.3564 19.1682C42.6064 18.9182 47.1764 40.6682 45.5564 44.5782C42.7164 51.4482 40.1863 58.4282 38.6263 65.7482C37.6663 70.2182 39.1364 74.3081 39.8064 78.5381C39.9164 79.2681 40.1664 79.9682 40.3564 80.6882C40.7464 82.1982 40.7264 82.2582 39.0864 83.1882H39.0764Z" fill="white"/>
<path d="M101.506 80.8781C101.096 80.0681 100.756 79.6181 100.646 79.1181C99.4163 73.6181 98.2563 68.1081 96.9963 62.6181C96.8363 61.9081 96.4163 61.0381 95.8363 60.6581C89.7163 56.6281 86.4463 50.6181 83.9863 43.9981C82.7763 40.7381 81.4163 37.5281 80.2263 34.2681C79.9863 33.5981 79.9663 32.6381 80.2663 32.0181C81.7763 28.8981 86.1563 23.2581 86.5963 23.5881C90.5563 26.5881 93.6863 30.2281 96.2863 34.5081C98.8863 38.7981 101.616 42.9981 103.336 47.7381C107.226 58.4981 106.936 69.1381 102.196 79.5981C102.066 79.8781 101.906 80.1481 101.506 80.8781Z" fill="white"/>
<path d="M118.796 120.858H93.9463C94.3163 119.758 94.5463 118.618 95.0463 117.618C96.0963 115.508 97.1063 113.328 98.4663 111.418C100.486 108.558 104.476 107.458 108.196 109.008C113.326 111.158 116.876 114.998 118.796 120.858Z" fill="white"/>
<path d="M128.036 135.078C129.136 137.838 130.006 140.158 130.986 142.418C131.456 143.498 131.516 144.408 130.726 145.338C128.296 148.198 127.876 151.238 129.946 154.448C132.186 157.928 132.136 162.358 130.106 165.958C128.696 168.448 128.086 171.378 126.986 174.058C126.746 174.648 126.036 175.278 125.436 175.478C124.196 175.898 122.866 176.148 121.556 176.278C118.836 176.498 117.496 178.028 115.706 181.028C98.5763 203.798 68.0763 187.298 66.2263 190.278C69.2863 204.238 39.8163 186.258 35.8963 171.958C34.7063 167.618 34.6863 175.788 31.2263 174.038C21.0963 168.898 24.9963 148.928 23.7263 148.218C22.7463 147.668 22.8063 152.348 20.1263 150.898C16.7663 149.088 16.8063 132.108 25.0563 123.158C26.6663 120.898 26.5763 120.628 24.4563 118.708C22.9463 117.338 22.4763 115.158 23.2863 113.288C24.0363 111.548 24.8963 109.848 25.5463 108.068C25.9963 106.808 26.7063 106.448 28.0163 106.448C40.1063 106.318 54.6663 106.378 57.3463 105.168C59.5563 104.168 38.9063 104.228 37.2363 103.258C35.1763 102.058 30.5063 99.9477 28.4963 99.0177C28.0863 98.8277 28.0363 98.2777 28.3763 97.9977C29.7863 96.8577 31.0563 95.8076 32.3863 94.8476C33.2563 94.2176 33.6263 93.5577 33.5163 92.4677C32.9063 86.5377 32.4763 80.5877 31.7063 74.6777C31.4063 72.4177 30.5063 70.2077 29.6363 68.0777C26.9863 61.5777 25.1563 54.8577 24.5663 47.8877C24.2263 43.8677 24.4863 39.7677 24.7963 35.7277C24.8963 34.3877 25.7963 32.9677 26.6663 31.8377C28.8563 28.9977 31.0863 26.1677 33.5663 23.5877C36.2963 20.7377 39.2863 18.1377 42.2163 15.4777C43.3763 14.4277 44.9263 14.6177 45.7563 15.9077C47.6863 18.9277 49.5763 21.9777 51.4063 25.0677C51.7563 25.6577 51.8363 26.4777 51.8263 27.1877C51.7963 31.5277 51.7763 35.8577 51.5763 40.1877C51.5063 41.6377 51.1063 43.0477 50.4463 44.3477C49.6363 45.9377 49.3063 47.4077 49.8063 49.1777C50.4363 51.3877 50.8063 53.6777 51.3163 56.0677C54.3763 54.9577 57.2863 54.0377 60.0663 52.8277C61.5763 52.1677 62.7263 52.2377 64.0163 53.1777C70.2463 57.6977 76.5063 62.1777 82.7663 66.6777C83.0563 66.8877 83.3563 67.0877 83.6263 67.2777C83.7863 67.1877 83.9363 67.1477 83.9463 67.0877C84.6463 61.4777 85.3263 55.9277 82.8363 50.4677C80.3363 44.9977 78.1563 39.3877 75.9063 33.8177C75.6663 33.2177 75.6463 32.2377 75.8663 31.6377C77.4063 27.4577 79.0263 23.3077 80.6763 19.1577C81.1663 17.9277 83.0563 17.7177 84.2763 18.6977C90.9163 24.0177 96.7063 30.0977 101.016 37.5077C103.456 41.6877 106.166 45.6977 107.276 50.5677C108.816 57.3077 109.206 64.0677 107.766 70.8177C106.916 74.8177 105.496 78.6877 104.426 82.6377C104.296 83.1377 104.586 83.9377 104.956 84.3577C107.276 87.0177 109.716 89.5877 112.036 92.2477C113.436 93.8477 113.386 94.3077 111.876 95.8377C111.066 96.6477 110.116 97.3177 109.066 98.1877L111.966 102.018C112.216 102.348 112.136 102.808 111.766 103.008C110.036 103.918 109.196 106.508 110.686 106.508C123.146 106.458 133.596 106.478 146.056 106.478C147.446 106.478 148.586 107.588 148.616 108.978C148.776 115.968 147.706 122.778 144.776 129.138C143.746 131.368 142.076 133.508 140.196 135.078C137.066 137.678 133.356 137.428 129.726 135.868C129.306 135.688 128.896 135.478 128.046 135.078H128.036ZM32.9763 162.448C34.5163 161.258 34.2963 156.798 34.9363 154.958C35.1263 154.418 36.1163 154.568 36.4063 155.158C36.6063 155.558 36.5463 156.088 36.6463 156.548C39.2163 167.758 44.9663 176.978 53.9763 184.148C55.2963 185.198 56.6263 186.268 58.0763 187.108C58.6263 187.428 59.5663 187.298 60.2363 187.088C60.4863 187.008 60.5963 186.108 60.5663 185.588C60.4763 184.078 60.2763 182.568 60.0963 180.808C61.1763 180.808 62.0563 180.808 62.9363 180.808C71.6963 180.698 83.3463 185.858 91.4663 182.308C94.0363 181.178 96.3563 179.468 98.7463 177.958C99.6363 177.398 99.8263 176.698 98.7663 176.018C94.6863 173.398 87.6163 164.758 83.5463 162.118C82.9963 161.768 81.9363 161.778 82.3963 160.628C82.8063 159.598 83.3563 158.908 84.6563 159.348C86.5563 159.998 88.4963 160.508 90.3863 161.168C95.9363 163.088 100.726 166.368 105.526 169.668C106.376 170.248 107.536 170.438 108.586 170.628C111.356 171.148 113.626 170.208 115.416 168.058C115.616 167.818 115.916 167.668 116.126 167.428C117.066 166.388 118.196 166.358 119.596 166.738C119.206 167.858 118.846 168.908 118.456 170.028C126.146 169.688 129.466 160.318 125.546 156.108C125.076 156.738 124.676 157.418 124.146 157.958C122.856 159.258 121.566 159.068 120.616 157.528C119.906 156.368 119.166 155.228 118.276 153.818C117.006 155.388 115.956 156.758 114.836 158.068C114.376 158.598 113.806 159.278 113.186 159.408C110.926 159.888 108.646 160.078 106.526 158.798C105.826 158.378 104.806 157.898 104.046 157.578C98.4363 155.208 92.6363 153.438 86.6163 152.478C85.8063 152.348 85.2263 152.108 85.4763 151.228C85.5763 150.868 86.1063 150.378 86.4463 150.378C93.7763 150.378 101.276 149.328 107.966 153.588C108.006 153.618 108.066 153.628 108.116 153.648C111.336 154.968 111.316 154.958 113.546 152.288C114.136 151.578 114.806 150.548 115.556 150.448C117.406 150.188 119.306 150.378 121.656 150.388C123.006 148.768 124.716 146.638 126.526 144.578C127.186 143.828 127.216 143.198 126.866 142.298C125.646 139.208 124.536 136.078 123.366 132.968C122.836 131.568 122.266 130.178 121.646 128.588C119.266 131.008 116.886 133.038 117.436 136.698C117.636 138.038 117.546 139.438 117.486 140.808C117.476 141.158 117.616 141.698 116.876 141.828C116.136 141.958 115.946 141.348 115.836 140.988C115.476 139.838 115.296 138.628 115.046 137.438C114.456 134.628 114.446 134.568 111.656 135.008C110.616 135.168 110.106 134.908 109.716 133.968C109.096 132.458 108.296 131.018 107.716 129.488C106.946 127.438 105.376 126.548 103.166 126.278C100.156 125.908 97.2263 125.028 94.2963 124.238C92.8063 123.838 92.2763 124.338 91.6863 125.578C88.5963 131.998 84.6063 137.718 78.4663 141.608C72.3063 145.508 65.7263 147.468 58.4363 145.438C53.8063 144.148 49.9963 141.468 46.6263 138.108C42.9663 134.458 40.1163 130.348 39.3563 125.078V125.058C39.1563 123.688 37.8363 122.778 36.4763 122.988H36.4363C35.5763 123.128 34.9563 123.888 34.9963 124.758C35.0363 125.798 35.0763 126.788 35.2563 127.758C35.5563 129.418 32.7963 130.808 30.1163 133.708C27.4363 136.608 24.6763 141.578 27.1663 145.708C28.8163 148.438 31.4863 147.378 31.2863 148.458C30.6163 152.078 28.7563 152.768 29.6263 158.648C29.9063 160.518 31.4563 163.678 33.0163 162.478L32.9763 162.448ZM109.926 93.4977C110.036 93.2477 62.7463 56.3477 61.6463 56.9277C59.9163 57.8277 58.1763 58.7177 56.3963 59.5077C54.7363 60.2477 53.7063 61.4877 53.1063 63.1477C52.7663 64.0877 52.4163 65.0277 52.1163 65.9777C51.3163 68.4677 49.4863 80.6276 49.4263 81.3476C49.1863 84.2376 48.9863 87.1277 48.7363 90.0177C48.4663 93.1577 50.3263 95.2377 53.4463 95.2277C65.1063 95.1877 76.7663 94.9977 88.4163 95.1677C92.7063 95.2277 97.0463 95.8577 101.256 96.7077C105.066 97.4777 107.366 95.3977 109.916 93.4977H109.926ZM39.0763 83.1777C40.7163 82.2477 40.7363 82.1877 40.3463 80.6777C40.1563 79.9677 39.9163 79.2577 39.7963 78.5277C39.1363 74.2977 37.6663 70.2077 38.6163 65.7377C40.1863 58.4177 42.7163 51.4377 45.5463 44.5677C46.6063 42.0077 44.9063 31.9177 43.6063 25.2477C43.0863 22.5877 39.8063 21.6077 37.9063 23.5377C35.2563 26.2177 32.7163 28.9977 30.4263 32.0477C28.2963 34.8877 27.3163 37.7377 27.2863 41.3177C27.2463 46.9577 27.5263 52.5277 29.2763 57.8877C30.8663 62.7977 32.7863 67.5977 34.6463 72.4077C36.0363 75.9877 37.5563 79.5277 39.0563 83.1777H39.0763ZM101.506 80.8677C101.896 80.1377 102.066 79.8677 102.196 79.5877C106.946 69.1277 107.236 58.4877 103.336 47.7277C101.626 42.9877 98.8963 38.7877 96.2863 34.4977C94.3063 31.2377 92.0163 28.3477 89.2863 25.8277C87.8663 24.5177 85.6463 24.6277 84.4163 26.1077C82.9363 27.8977 81.0963 30.2877 80.2663 32.0077C79.9663 32.6277 79.9763 33.5877 80.2263 34.2577C81.4163 37.5277 82.7763 40.7277 83.9863 43.9877C86.4463 50.6077 89.7163 56.6177 95.8363 60.6477C96.4163 61.0277 96.8363 61.8877 96.9963 62.6077C98.2563 68.0977 99.4163 73.6077 100.646 79.1077C100.756 79.6077 101.106 80.0577 101.506 80.8677V80.8677ZM118.796 120.858C116.876 114.998 113.326 111.158 108.196 109.008C104.466 107.448 100.486 108.548 98.4663 111.418C97.1163 113.338 96.0963 115.508 95.0463 117.618C94.5463 118.618 94.3063 119.758 93.9463 120.858H118.796Z" fill="#18191B"/>
<path d="M67.4864 90.3563L55.2664 88.6063L59.4264 84.4463L71.6964 86.1563L67.4864 90.3563Z" fill="white"/>
<path d="M53.5164 76.3867L55.2664 88.6068L59.4264 84.4467L57.7164 72.1768L53.5164 76.3867Z" fill="white"/>
<path d="M74.2964 83.5567L62.0764 81.7967L66.2365 77.6367L78.5064 79.3467L74.2964 83.5567Z" fill="white"/>
<path d="M60.3264 69.5772L62.0764 81.7972L66.2365 77.6372L64.5264 65.3672L60.3264 69.5772Z" fill="white"/>
<path d="M43.8264 14.8079C44.5564 14.8079 45.2564 15.1878 45.7264 15.9178C47.6564 18.9378 49.5464 21.9879 51.3764 25.0779C51.7264 25.6679 51.8064 26.4878 51.7964 27.1978C51.7664 31.5378 51.7464 35.8678 51.5464 40.1978C51.4764 41.6478 51.0764 43.0578 50.4164 44.3578C49.6064 45.9478 49.2764 47.4179 49.7764 49.1879C50.4064 51.3979 50.7764 53.6879 51.2864 56.0779C54.3464 54.9679 57.2564 54.0479 60.0364 52.8379C60.6964 52.5479 61.2864 52.4079 61.8464 52.4079C62.5764 52.4079 63.2664 52.6579 63.9964 53.1879C70.2264 57.7079 76.4864 62.1879 82.7464 66.6879C83.0364 66.8979 83.3364 67.0978 83.6064 67.2878C83.7664 67.1978 83.9164 67.1578 83.9264 67.0978C84.6264 61.4878 85.3064 55.9378 82.8164 50.4778C80.3164 45.0078 78.1364 39.3979 75.8864 33.8279C75.6464 33.2279 75.6264 32.2479 75.8464 31.6479C77.3864 27.4679 79.0064 23.3178 80.6564 19.1678C80.9364 18.4578 81.6764 18.0879 82.4964 18.0879C83.0964 18.0879 83.7364 18.2879 84.2564 18.7079C90.8964 24.0279 96.6864 30.1079 100.996 37.5179C103.436 41.6979 106.146 45.7079 107.256 50.5779C108.796 57.3179 109.186 64.0779 107.746 70.8279C106.896 74.8279 105.476 78.6979 104.406 82.6479C104.276 83.1479 104.566 83.9479 104.936 84.3679C107.256 87.0279 109.696 89.5978 112.016 92.2578C113.416 93.8578 113.366 94.3178 111.856 95.8478C111.046 96.6578 110.096 97.3278 109.046 98.1978L111.946 102.028C112.196 102.358 112.116 102.818 111.746 103.018C110.016 103.928 109.186 106.518 110.656 106.518C116.986 106.488 122.806 106.488 128.626 106.488C134.446 106.488 139.906 106.488 146.026 106.488C147.416 106.488 148.556 107.598 148.586 108.988C148.746 115.978 147.676 122.788 144.746 129.148C143.716 131.378 142.046 133.518 140.166 135.088C138.496 136.468 136.666 137.048 134.766 137.048C133.106 137.048 131.386 136.608 129.696 135.878C129.276 135.698 128.866 135.488 128.026 135.088C129.126 137.848 129.996 140.168 130.976 142.428C131.446 143.508 131.506 144.418 130.716 145.348C128.286 148.208 127.866 151.248 129.936 154.458C132.176 157.938 132.126 162.368 130.096 165.968C128.686 168.458 128.076 171.388 126.976 174.068C126.736 174.658 126.026 175.288 125.426 175.488C124.186 175.908 122.856 176.158 121.546 176.288C118.826 176.508 117.486 178.038 115.696 181.038C108.416 190.718 98.7164 193.298 89.8264 193.298C79.6564 193.298 70.5464 189.918 67.3464 189.918C66.7664 189.918 66.3764 190.028 66.2164 190.298C66.9964 193.858 65.6664 195.338 63.1864 195.338C55.9264 195.338 38.8064 182.638 35.8864 171.978C35.6264 171.048 35.4264 170.688 35.2364 170.688C34.6164 170.688 34.0864 174.298 32.1464 174.298C31.8664 174.298 31.5564 174.218 31.2064 174.048C21.0764 168.908 24.9764 148.938 23.7064 148.228C23.6464 148.198 23.5964 148.178 23.5464 148.178C22.8364 148.178 22.6764 151.188 21.0464 151.188C20.7764 151.188 20.4664 151.108 20.1064 150.908C16.7464 149.098 16.7864 132.118 25.0364 123.168C26.6464 120.908 26.5564 120.638 24.4464 118.718C22.9364 117.348 22.4664 115.168 23.2664 113.298C24.0164 111.558 24.8764 109.858 25.5264 108.078C25.9764 106.828 26.6764 106.458 27.9664 106.458C27.9664 106.458 27.9864 106.458 27.9964 106.458C40.0864 106.328 54.6464 106.388 57.3264 105.178C59.5364 104.178 38.8864 104.238 37.2164 103.268C35.1564 102.068 30.4864 99.9579 28.4764 99.0279C28.0664 98.8379 28.0164 98.2878 28.3564 98.0078C29.7664 96.8678 31.0364 95.8178 32.3664 94.8578C33.2364 94.2278 33.6064 93.5678 33.4964 92.4778C32.8864 86.5478 32.4564 80.5979 31.6864 74.6879C31.3864 72.4279 30.4864 70.2179 29.6164 68.0879C26.9664 61.5879 25.1364 54.8679 24.5464 47.8979C24.2064 43.8779 24.4664 39.7779 24.7764 35.7379C24.8764 34.3979 25.7764 32.9778 26.6464 31.8478C28.8364 29.0078 31.0664 26.1778 33.5464 23.5978C36.2764 20.7478 39.2664 18.1379 42.1964 15.4879C42.6964 15.0279 43.2764 14.8079 43.8364 14.8079M37.8464 23.6378C37.8464 23.6378 37.9164 23.5679 37.9564 23.5279C37.9564 23.5279 37.9464 23.5379 37.9364 23.5479C37.9064 23.5779 37.8764 23.6078 37.8464 23.6378M43.8364 11.8079C42.5164 11.8079 41.2164 12.3279 40.1864 13.2679C39.6564 13.7479 39.1364 14.2178 38.6064 14.6978C36.1964 16.8678 33.7064 19.1079 31.3864 21.5279C28.7164 24.3179 26.3164 27.3779 24.2764 30.0279C22.7164 32.0579 21.9264 33.8079 21.7964 35.5179C21.4764 39.7579 21.2164 43.9179 21.5764 48.1579C22.1564 55.0679 23.8864 61.9578 26.8564 69.2278C27.6564 71.1878 28.4864 73.2179 28.7264 75.0879C29.2264 78.8979 29.5864 82.8078 29.9364 86.5978C30.1164 88.5778 30.2964 90.5479 30.5064 92.5179C29.3864 93.3279 28.3464 94.1778 27.2364 95.0678L26.4964 95.6678C25.5164 96.4578 25.0264 97.6678 25.1764 98.9178C25.3264 100.158 26.0964 101.218 27.2364 101.738L28.1664 102.168C28.9364 102.528 29.8864 102.958 30.8764 103.428C29.9064 103.428 28.9464 103.448 27.9964 103.458C25.3764 103.458 23.6064 104.668 22.7464 107.058C22.3664 108.118 21.8864 109.168 21.3764 110.288C21.0964 110.898 20.8264 111.508 20.5564 112.118C19.2464 115.168 20.0164 118.718 22.4764 120.948C22.5464 121.018 22.6664 121.118 22.7864 121.228C22.7764 121.248 22.7564 121.268 22.7464 121.288C15.5164 129.268 14.3864 141.578 15.3864 147.508C15.9064 150.598 17.0364 152.628 18.7464 153.548C19.4964 153.948 20.2664 154.168 21.0164 154.178C20.9864 161.428 21.6064 172.508 29.9064 176.718C30.6564 177.098 31.4364 177.298 32.2064 177.298C33.1564 177.298 33.9364 177.028 34.5864 176.618C40.0564 187.238 55.2664 198.328 63.2364 198.328C65.9064 198.328 67.4064 197.168 68.1864 196.198C68.8564 195.368 69.2664 194.368 69.4164 193.218C70.2564 193.388 71.2364 193.608 72.2464 193.848C76.7964 194.888 83.0264 196.308 89.8764 196.308C101.906 196.308 111.416 191.778 118.136 182.848L118.236 182.718L118.316 182.578C120.026 179.698 120.666 179.378 121.826 179.288C123.526 179.128 125.066 178.808 126.436 178.338C127.876 177.848 129.226 176.588 129.786 175.208C130.236 174.098 130.606 172.988 130.966 171.918C131.506 170.288 132.016 168.738 132.746 167.438C135.386 162.758 135.286 157.158 132.496 152.828C131.226 150.848 131.376 149.248 133.046 147.288C134.066 146.098 135.006 144.068 133.776 141.228C133.586 140.808 133.406 140.378 133.236 139.948C133.776 140.018 134.306 140.048 134.826 140.048C137.556 140.048 140.016 139.158 142.146 137.398C144.416 135.518 146.326 133.038 147.536 130.408C150.486 124.008 151.836 116.988 151.656 108.928C151.586 105.938 149.096 103.498 146.096 103.498H138.106C134.916 103.498 131.806 103.498 128.696 103.498C123.566 103.498 119.186 103.498 114.996 103.518C115.026 103.438 115.046 103.348 115.066 103.258C115.296 102.208 115.056 101.108 114.396 100.238L113.246 98.7179C113.516 98.4779 113.786 98.2379 114.046 97.9679C116.686 95.3079 116.766 93.0879 114.336 90.2979C113.146 88.9379 111.926 87.5878 110.746 86.2878C109.686 85.1278 108.606 83.9379 107.556 82.7379C107.906 81.4879 108.296 80.2278 108.666 79.0078C109.416 76.5678 110.186 74.0478 110.736 71.4478C112.166 64.7178 112.006 57.6679 110.236 49.9079C109.186 45.3279 106.936 41.5378 104.756 37.8878C104.386 37.2678 104.016 36.6378 103.646 36.0078C99.4964 28.8778 93.7864 22.4579 86.1864 16.3679C85.1564 15.5479 83.8664 15.0879 82.5464 15.0879C80.4564 15.0879 78.6364 16.2579 77.9264 18.0579C75.9464 23.0479 74.4564 26.9078 73.0864 30.5978C72.6064 31.9078 72.6364 33.6478 73.1564 34.9478C73.5864 36.0078 74.0064 37.0678 74.4364 38.1278C76.2264 42.5978 78.0864 47.2279 80.1364 51.7179C81.6464 55.0179 81.7864 58.4678 81.5064 62.0678L79.9464 60.9478C75.3064 57.6178 70.5064 54.1678 65.8064 50.7578C64.5564 49.8478 63.2764 49.4079 61.8964 49.4079C60.9264 49.4079 59.9464 49.6279 58.8864 50.0879C57.2064 50.8179 55.4464 51.4478 53.5864 52.0978C53.3364 50.8678 53.0564 49.6079 52.7064 48.3679C52.4964 47.6279 52.4964 46.9579 53.1364 45.7079C54.0164 43.9779 54.5064 42.1679 54.5864 40.3279C54.7664 36.3779 54.7964 32.3778 54.8264 28.5078V27.2079C54.8464 25.7179 54.5764 24.5178 53.9964 23.5378C52.2264 20.5278 50.3564 17.5078 48.2964 14.2878C47.2964 12.7278 45.6464 11.7979 43.8764 11.7979L43.8364 11.8079Z" fill="white"/>
</svg>
