<svg width="421" height="210" viewBox="0 0 421 210" fill="none" xmlns="http://www.w3.org/2000/svg">
<path d="M203.047 134.909H163.427V75.0293H178.447V122.369H203.037V134.909H203.047Z" fill="#18191B"/>
<path d="M209.567 134.909V123.929H223.457V86.3993H210.767V75.0293H238.127V123.999H250.887V134.979H209.567V134.909Z" fill="#18191B"/>
<path d="M258.177 121.659C258.177 113.229 264.417 108.339 276.457 107.419L285.957 106.709V103.239C285.957 100.259 283.757 98.4194 280.287 98.4194C277.237 98.4194 274.827 99.9094 274.117 102.179H259.877C260.727 93.1794 268.737 87.6494 280.787 87.6494C292.837 87.6494 300.417 93.3894 300.417 103.739V134.989H286.527V129.249H285.247C282.907 133.289 278.227 135.699 272.637 135.699C263.987 135.699 258.107 130.029 258.107 121.739L258.177 121.669V121.659ZM285.957 117.269V115.139L279.297 115.709C274.757 116.059 272.497 117.689 272.497 120.599C272.497 123.219 274.627 124.849 278.027 124.849C282.847 124.849 285.967 121.869 285.967 117.269H285.957Z" fill="#18191B"/>
<path d="M356.547 134.909H344.357V102.879C344.357 100.899 343.077 99.4789 341.307 99.4789C339.537 99.4789 338.257 100.899 338.257 102.879V134.909H326.277V102.879C326.277 100.819 324.997 99.4789 323.227 99.4789C321.457 99.4789 320.177 100.829 320.177 102.879V134.909H307.987V88.6989H320.677V96.3489H322.237C323.157 90.6089 326.207 87.6289 330.957 87.6289C335.067 87.6289 337.907 90.6089 338.827 95.8489H340.387C341.237 90.6089 344.077 87.6289 348.327 87.6289C353.497 87.6289 356.407 91.3889 356.407 97.9789V134.899H356.547V134.909Z" fill="#18191B"/>
<path d="M362.207 121.659C362.207 113.229 368.447 108.339 380.487 107.419L389.987 106.709V103.239C389.987 100.259 387.787 98.4194 384.317 98.4194C381.267 98.4194 378.857 99.9094 378.147 102.179H363.907C364.757 93.1794 372.767 87.6494 384.817 87.6494C396.867 87.6494 404.447 93.3894 404.447 103.739V134.989H390.557V129.249H389.277C386.937 133.289 382.257 135.699 376.667 135.699C368.017 135.699 362.137 130.029 362.137 121.739L362.207 121.669V121.659ZM389.987 117.269V115.139L383.327 115.709C378.787 116.059 376.527 117.689 376.527 120.599C376.527 123.219 378.657 124.849 382.057 124.849C386.877 124.849 389.997 121.869 389.997 117.269H389.987Z" fill="#18191B"/>
<path d="M183.237 179.309H174.177L172.487 187.179H163.427L173.537 151.379H184.667L194.827 187.179H184.927L183.277 179.309H183.237ZM175.617 172.749H181.837L178.997 159.419H178.527L175.607 172.749H175.617Z" fill="#18191B"/>
<path d="M197.457 187.139V180.579H205.877V166.059H198.177V159.499H214.347V180.529H222.087V187.089H197.457V187.129V187.139ZM204.607 149.769C204.607 146.809 206.727 144.989 210.147 144.989C213.567 144.989 215.687 146.809 215.687 149.769C215.687 152.729 213.567 154.549 210.147 154.549C206.727 154.549 204.607 152.729 204.607 149.769Z" fill="#18191B"/>
<path d="M239.647 181.219H247.267V187.189H226.317V181.219H231.307V165.519H225.807V159.549H239.727V166.659H241.207C242.557 160.949 244.977 158.829 250.097 158.829C251.617 158.829 252.937 158.999 253.987 159.379V168.309C252.757 167.799 250.937 167.509 249.327 167.509C242.467 167.509 239.637 169.709 239.637 175.039V181.219H239.647Z" fill="#18191B"/>
<path d="M264.997 166.449H257.677V159.929H264.997V158.449C264.997 151.679 267.667 149.439 275.657 149.439H283.907V155.319H275.947C274.337 155.319 273.537 156.169 273.537 157.769V159.929H283.947V166.449H273.787V187.149H265.027V166.449H264.987H264.997Z" fill="#18191B"/>
<path d="M287.307 175.549V171.189C287.307 163.609 292.427 158.919 300.597 158.919C308.767 158.919 313.887 163.619 313.887 171.189V175.549C313.887 183.129 308.767 187.819 300.597 187.819C292.427 187.819 287.307 183.119 287.307 175.549ZM295.897 171.439V175.329C295.897 178.929 297.717 181.209 300.597 181.209C303.477 181.209 305.297 178.919 305.297 175.329V171.439C305.297 167.839 303.477 165.559 300.597 165.559C297.717 165.559 295.897 167.849 295.897 171.439Z" fill="#18191B"/>
<path d="M330.807 181.219H338.427V187.189H317.477V181.219H322.467V165.519H316.967V159.549H330.887V166.659H332.367C333.717 160.949 336.137 158.829 341.257 158.829C342.777 158.829 344.097 158.999 345.147 159.379V168.309C343.917 167.799 342.097 167.509 340.487 167.509C333.627 167.509 330.797 169.709 330.797 175.039V181.219H330.807Z" fill="#18191B"/>
<path d="M366.017 169.789C365.637 166.789 364.407 165.559 361.867 165.559C359.027 165.559 357.467 168.059 357.467 172.589V174.069C357.467 178.599 359.037 181.099 361.867 181.099C364.447 181.099 365.587 179.999 366.017 177.159H374.567C374.017 184.269 369.827 187.819 361.867 187.819C353.237 187.819 348.667 183.249 348.667 174.569V172.069C348.667 163.389 353.237 158.819 361.867 158.819C369.827 158.819 373.967 162.419 374.567 169.819H366.017V169.779V169.789Z" fill="#18191B"/>
<path d="M404.447 179.019C404.067 184.099 398.777 187.779 391.917 187.779C383.497 187.779 378.717 183.339 378.717 175.459V170.889C378.717 163.649 384.007 158.869 391.917 158.869C399.327 158.869 404.397 163.689 404.397 170.799V175.239H387.257V176.929C387.257 179.639 389.117 181.499 391.867 181.499C394.067 181.499 395.977 180.399 396.267 178.959H404.437V178.999L404.447 179.019ZM387.267 170.259H396.027C396.027 167.039 394.417 165.139 391.707 165.139C388.997 165.139 387.267 167.089 387.267 170.259Z" fill="#18191B"/>
<path d="M30.6472 163.759C28.8272 163.219 25.5872 159.679 25.9272 157.819C26.5772 154.189 26.7272 152.729 27.3972 149.109C27.5972 148.029 24.3272 145.899 23.1772 145.439C21.9772 144.959 20.0472 136.149 20.5072 135.099C22.0772 131.529 25.6272 130.369 27.3372 126.869C28.0672 125.379 31.0772 128.719 30.7872 127.059C30.5272 125.629 33.2572 123.359 33.1472 121.759C34.5172 121.549 38.9572 121.939 40.2972 121.729C40.4972 122.669 42.1672 123.859 42.2772 124.629C43.0372 129.899 41.4772 134.379 45.1372 138.039C48.5072 141.399 52.3172 144.089 56.9472 145.369C64.2272 147.399 70.8172 145.439 76.9772 141.539C83.1272 137.649 87.1072 131.929 90.1972 125.509C90.7872 124.279 91.3172 123.769 92.8072 124.169C96.0072 125.029 99.2772 125.649 102.527 126.349C104.297 126.739 105.567 127.639 106.237 129.419C106.807 130.949 107.617 132.389 108.237 133.899C108.627 134.839 109.137 135.099 110.177 134.939C112.977 134.499 112.977 134.559 113.567 137.369C113.817 138.559 114.007 139.759 114.357 140.919C114.467 141.269 115.997 141.079 116.007 140.739C116.067 139.369 116.157 137.969 115.957 136.629C115.407 132.979 117.787 130.939 120.167 128.519C120.797 130.109 121.357 131.499 121.887 132.899C123.057 136.009 124.177 139.139 125.387 142.229C125.737 143.129 125.717 143.749 125.047 144.509C123.237 146.569 121.527 148.699 120.177 150.319C117.837 150.309 115.927 150.119 114.077 150.379C113.327 150.489 112.657 151.519 112.067 152.219C109.837 154.889 109.857 154.909 106.637 153.579C106.587 153.559 106.537 153.549 106.487 153.519C99.7872 149.259 92.2972 150.309 84.9672 150.309C84.6272 150.309 84.0972 150.799 83.9972 151.159C83.7472 152.039 84.3272 152.279 85.1372 152.409C91.2072 153.379 97.0472 155.169 102.707 157.569C103.487 157.899 104.267 158.239 104.977 158.689C107.127 160.019 109.427 159.839 111.717 159.349C112.337 159.219 112.907 158.549 113.367 158.009C114.497 156.709 115.547 155.339 116.807 153.759C117.697 155.169 118.437 156.309 119.147 157.469C120.087 159.009 121.387 159.199 122.677 157.899C123.217 157.359 123.617 156.679 124.077 156.049C127.997 160.259 124.687 169.639 116.987 169.969C117.377 168.849 117.737 167.799 118.127 166.679C116.727 166.299 115.597 166.329 114.657 167.369C114.447 167.599 114.147 167.759 113.947 167.999C112.157 170.149 109.887 171.099 107.117 170.569C106.067 170.369 104.897 170.189 104.057 169.609C99.2672 166.319 94.4772 163.029 88.9172 161.109C87.0272 160.459 85.0772 159.939 83.1872 159.289C81.8872 158.839 81.3372 159.539 80.9272 160.569C80.4772 161.709 81.5372 161.699 82.0772 162.059C86.1472 164.699 90.2172 167.339 94.2972 169.959C95.3572 170.639 105.127 175.579 104.237 176.139C101.837 177.639 94.5072 185.229 91.9372 186.349C83.8172 189.909 70.2272 180.639 61.4672 180.749C60.5872 180.759 59.7072 180.749 58.6272 180.749C58.8072 182.509 59.0072 184.019 59.0972 185.529C59.1272 186.049 59.0172 186.949 58.7672 187.029C58.0972 187.239 57.1572 187.369 56.6072 187.049C55.1572 186.199 53.8272 185.139 52.5072 184.089C43.4972 176.929 37.7472 167.699 35.1772 156.489C35.0672 156.029 35.1372 155.499 34.9372 155.099C34.6472 154.509 34.3472 155.439 34.1672 155.969C33.5372 157.809 34.2472 160.089 33.7172 161.969C33.5872 162.419 30.7972 163.219 30.6572 163.759H30.6472Z" fill="white"/>
<path d="M108.457 93.4389C105.907 95.3389 103.597 97.4188 99.7974 96.6488C95.5774 95.7888 91.2474 95.1688 86.9574 95.1088C75.3074 94.9388 63.6474 95.1288 51.9874 95.1688C48.8674 95.1788 47.0074 93.0988 47.2774 89.9588C47.5274 87.0688 47.7174 84.1788 47.9674 81.2888C48.0274 80.5688 49.8574 68.4088 50.6574 65.9188C50.9574 64.9688 51.3074 64.0288 51.6474 63.0888C52.2474 61.4288 53.2774 60.1888 54.9374 59.4488C56.7174 58.6588 58.4574 57.7588 60.1874 56.8688C61.2874 56.2988 108.577 93.1889 108.467 93.4389H108.457Z" fill="white"/>
<path d="M60.4572 54.499L49.9872 57.439L44.3172 62.739L42.8972 94.269L54.3272 97.269H101.557C101.557 97.269 109.917 96.249 109.027 93.499C108.137 90.759 66.5772 58.199 66.5772 58.199L60.4472 54.499H60.4572Z" fill="#18191B"/>
<path d="M37.6072 83.1296C36.1072 79.4696 34.5772 75.9396 33.1972 72.3596C31.3372 67.5396 29.4172 62.7396 27.8272 57.8396C26.0872 52.4796 25.7972 46.9096 25.8372 41.2696C25.8672 37.6896 26.8472 34.8396 28.9772 31.9996C32.5172 27.2796 36.6972 23.1996 40.8872 19.1096C41.1372 18.8596 45.7072 40.6096 44.0872 44.5196C41.2472 51.3896 38.7172 58.3696 37.1572 65.6896C36.1972 70.1596 37.6672 74.2496 38.3372 78.4796C38.4472 79.2096 38.6972 79.9096 38.8872 80.6296C39.2772 82.1396 39.2572 82.1996 37.6172 83.1296H37.6072Z" fill="white"/>
<path d="M100.037 80.8195C99.6273 80.0095 99.2873 79.5595 99.1773 79.0595C97.9473 73.5595 96.7873 68.0495 95.5273 62.5595C95.3673 61.8495 94.9473 60.9795 94.3673 60.5995C88.2473 56.5695 84.9773 50.5595 82.5173 43.9395C81.3073 40.6795 79.9473 37.4695 78.7573 34.2095C78.5173 33.5395 78.4973 32.5795 78.7973 31.9595C80.3073 28.8395 84.6873 23.1995 85.1273 23.5295C89.0873 26.5295 92.2173 30.1695 94.8173 34.4495C97.4173 38.7395 100.147 42.9395 101.867 47.6795C105.757 58.4395 105.467 69.0795 100.727 79.5395C100.597 79.8195 100.437 80.0895 100.037 80.8195V80.8195Z" fill="white"/>
<path d="M117.317 120.799H92.4673C92.8373 119.699 93.0673 118.559 93.5673 117.559C94.6173 115.449 95.6273 113.269 96.9873 111.359C99.0073 108.499 102.997 107.399 106.717 108.949C111.847 111.099 115.397 114.939 117.317 120.799V120.799Z" fill="white"/>
<path d="M126.557 135.019C127.657 137.779 128.527 140.099 129.507 142.359C129.977 143.439 130.037 144.349 129.247 145.279C126.817 148.139 126.397 151.179 128.467 154.389C130.707 157.869 130.657 162.299 128.627 165.899C127.217 168.389 126.607 171.319 125.507 173.999C125.267 174.589 124.557 175.219 123.957 175.419C122.717 175.839 121.387 176.089 120.077 176.219C117.357 176.439 116.017 177.969 114.227 180.969C97.0973 203.739 66.5973 187.239 64.7473 190.219C67.8073 204.179 38.3373 186.199 34.4173 171.899C33.2273 167.559 33.2073 175.729 29.7473 173.979C19.6173 168.839 23.5173 148.869 22.2473 148.159C21.2673 147.609 21.3273 152.289 18.6473 150.839C15.2873 149.029 15.3273 132.049 23.5773 123.099C25.1873 120.839 25.0973 120.569 22.9773 118.649C21.4673 117.279 20.9973 115.099 21.8073 113.229C22.5573 111.489 23.4173 109.789 24.0673 108.009C24.5173 106.749 25.2273 106.389 26.5373 106.389C38.6273 106.259 53.1873 106.319 55.8673 105.109C58.0773 104.109 37.4273 104.169 35.7573 103.199C33.6973 101.999 29.0273 99.8891 27.0173 98.9591C26.6073 98.7691 26.5573 98.2191 26.8973 97.9391C28.3073 96.7991 29.5773 95.7491 30.9073 94.7891C31.7773 94.1591 32.1473 93.4991 32.0373 92.4091C31.4273 86.4791 30.9973 80.5291 30.2273 74.6191C29.9273 72.3591 29.0273 70.1491 28.1573 68.0191C25.5073 61.5191 23.6773 54.7991 23.0873 47.8291C22.7473 43.8091 23.0073 39.7091 23.3173 35.6691C23.4173 34.3291 24.3173 32.9091 25.1873 31.7791C27.3773 28.9391 29.6073 26.1091 32.0873 23.5291C34.8173 20.6791 37.8073 18.0791 40.7373 15.4191C41.8973 14.3691 43.4473 14.5591 44.2773 15.8491C46.2073 18.8691 48.0973 21.9191 49.9273 25.0091C50.2773 25.5991 50.3573 26.4191 50.3473 27.1291C50.3173 31.4691 50.2973 35.7991 50.0973 40.1291C50.0273 41.5791 49.6273 42.9891 48.9673 44.2891C48.1573 45.8791 47.8273 47.3491 48.3273 49.1191C48.9573 51.3291 49.3273 53.6191 49.8373 56.0091C52.8973 54.8991 55.8073 53.9791 58.5873 52.7691C60.0973 52.1091 61.2473 52.1791 62.5373 53.1191C68.7673 57.6391 75.0273 62.1191 81.2873 66.6191C81.5773 66.8291 81.8773 67.0291 82.1473 67.2191C82.3073 67.1291 82.4573 67.0891 82.4673 67.0291C83.1673 61.4191 83.8473 55.8691 81.3573 50.4091C78.8573 44.9391 76.6773 39.3291 74.4273 33.7591C74.1873 33.1591 74.1673 32.1791 74.3873 31.5791C75.9273 27.3991 77.5473 23.2491 79.1973 19.0991C79.6873 17.8691 81.5773 17.6591 82.7973 18.6391C89.4373 23.9591 95.2273 30.0391 99.5373 37.4491C101.977 41.6291 104.687 45.6391 105.797 50.5091C107.337 57.2491 107.727 64.0091 106.287 70.7591C105.437 74.7591 104.017 78.6291 102.947 82.5791C102.817 83.0791 103.107 83.8791 103.477 84.2991C105.797 86.9591 108.237 89.5291 110.557 92.1891C111.957 93.7891 111.907 94.2491 110.397 95.7791C109.587 96.5891 108.637 97.2591 107.587 98.1291L110.487 101.959C110.737 102.289 110.657 102.749 110.287 102.949C108.557 103.859 107.717 106.449 109.207 106.449C121.667 106.399 132.117 106.419 144.577 106.419C145.967 106.419 147.107 107.529 147.137 108.919C147.297 115.909 146.227 122.719 143.297 129.079C142.267 131.309 140.597 133.449 138.717 135.019C135.587 137.619 131.877 137.369 128.247 135.809C127.827 135.629 127.417 135.419 126.567 135.019H126.557ZM31.4973 162.389C33.0373 161.199 32.8173 156.739 33.4573 154.899C33.6473 154.359 34.6373 154.509 34.9273 155.099C35.1273 155.499 35.0673 156.029 35.1673 156.489C37.7373 167.699 43.4873 176.919 52.4973 184.089C53.8173 185.139 55.1473 186.209 56.5973 187.049C57.1473 187.369 58.0873 187.239 58.7573 187.029C59.0073 186.949 59.1173 186.049 59.0873 185.529C58.9973 184.019 58.7973 182.509 58.6173 180.749C59.6973 180.749 60.5773 180.749 61.4573 180.749C70.2173 180.639 81.8673 185.799 89.9873 182.249C92.5573 181.119 94.8773 179.409 97.2673 177.899C98.1573 177.339 98.3473 176.639 97.2873 175.959C93.2073 173.339 86.1373 164.699 82.0673 162.059C81.5173 161.709 80.4573 161.719 80.9173 160.569C81.3273 159.539 81.8773 158.849 83.1773 159.289C85.0773 159.939 87.0173 160.449 88.9073 161.109C94.4573 163.029 99.2473 166.309 104.047 169.609C104.897 170.189 106.057 170.379 107.107 170.569C109.877 171.089 112.147 170.149 113.937 167.999C114.137 167.759 114.437 167.609 114.647 167.369C115.587 166.329 116.717 166.299 118.117 166.679C117.727 167.799 117.367 168.849 116.977 169.969C124.667 169.629 127.987 160.259 124.067 156.049C123.597 156.679 123.197 157.359 122.667 157.899C121.377 159.199 120.087 159.009 119.137 157.469C118.427 156.309 117.687 155.169 116.797 153.759C115.527 155.329 114.477 156.699 113.357 158.009C112.897 158.539 112.327 159.219 111.707 159.349C109.447 159.829 107.167 160.019 105.047 158.739C104.347 158.319 103.327 157.839 102.567 157.519C96.9573 155.149 91.1573 153.379 85.1373 152.419C84.3273 152.289 83.7473 152.049 83.9973 151.169C84.0973 150.809 84.6273 150.319 84.9673 150.319C92.2973 150.319 99.7973 149.269 106.487 153.529C106.527 153.559 106.587 153.569 106.637 153.589C109.857 154.909 109.837 154.899 112.067 152.229C112.657 151.519 113.327 150.489 114.077 150.389C115.927 150.129 117.827 150.319 120.177 150.329C121.527 148.709 123.237 146.579 125.047 144.519C125.707 143.769 125.737 143.139 125.387 142.239C124.167 139.149 123.057 136.019 121.887 132.909C121.357 131.509 120.787 130.119 120.167 128.529C117.787 130.949 115.407 132.979 115.957 136.639C116.157 137.979 116.067 139.379 116.007 140.749C115.997 141.099 116.137 141.639 115.397 141.769C114.657 141.899 114.467 141.289 114.357 140.929C113.997 139.779 113.817 138.569 113.567 137.379C112.977 134.569 112.967 134.509 110.177 134.949C109.137 135.109 108.627 134.849 108.237 133.909C107.617 132.399 106.817 130.959 106.237 129.429C105.467 127.379 103.897 126.489 101.687 126.219C98.6773 125.849 95.7473 124.969 92.8173 124.179C91.3273 123.779 90.7973 124.279 90.2073 125.519C87.1173 131.939 83.1273 137.659 76.9873 141.549C70.8273 145.449 64.2473 147.409 56.9573 145.379C52.3273 144.089 48.5173 141.409 45.1473 138.049C41.4873 134.399 38.6373 130.289 37.8773 125.019V124.999C37.6773 123.629 36.3573 122.719 34.9973 122.929H34.9573C34.0973 123.069 33.4773 123.829 33.5173 124.699C33.5573 125.739 33.5973 126.729 33.7773 127.699C34.0773 129.359 31.3173 130.749 28.6373 133.649C25.9573 136.549 23.1973 141.519 25.6873 145.649C27.3373 148.379 30.0073 147.319 29.8073 148.399C29.1373 152.019 27.2773 152.709 28.1473 158.589C28.4273 160.459 29.9773 163.619 31.5373 162.419L31.4973 162.389ZM108.447 93.4391C108.557 93.1891 61.2673 56.2891 60.1673 56.8691C58.4373 57.7691 56.6973 58.6591 54.9173 59.4491C53.2573 60.1891 52.2273 61.4291 51.6273 63.0891C51.2873 64.0291 50.9373 64.9691 50.6373 65.9191C49.8373 68.4091 48.0073 80.5691 47.9473 81.2891C47.7073 84.1791 47.5073 87.0691 47.2573 89.9591C46.9873 93.0991 48.8473 95.1791 51.9673 95.1691C63.6273 95.1291 75.2873 94.9391 86.9373 95.1091C91.2273 95.1691 95.5673 95.7991 99.7773 96.6491C103.587 97.4191 105.887 95.3391 108.437 93.4391H108.447ZM37.5973 83.1191C39.2373 82.1891 39.2573 82.1291 38.8673 80.6191C38.6773 79.9091 38.4373 79.1991 38.3173 78.4691C37.6573 74.2391 36.1873 70.1491 37.1373 65.6791C38.7073 58.3591 41.2373 51.3791 44.0673 44.5091C45.1273 41.9491 43.4273 31.8591 42.1273 25.1891C41.6073 22.5291 38.3273 21.5491 36.4273 23.4791C33.7773 26.1591 31.2373 28.9391 28.9473 31.9891C26.8173 34.8291 25.8373 37.6791 25.8073 41.2591C25.7673 46.8991 26.0473 52.4691 27.7973 57.8291C29.3873 62.7391 31.3073 67.5391 33.1673 72.3491C34.5573 75.9291 36.0773 79.4691 37.5773 83.1191H37.5973ZM100.027 80.8091C100.417 80.0791 100.587 79.8091 100.717 79.5291C105.467 69.0691 105.757 58.4291 101.857 47.6691C100.147 42.9291 97.4173 38.7291 94.8073 34.4391C92.8273 31.1791 90.5373 28.2891 87.8073 25.7691C86.3873 24.4591 84.1673 24.5691 82.9373 26.0491C81.4573 27.8391 79.6173 30.2291 78.7873 31.9491C78.4873 32.5691 78.4973 33.5291 78.7473 34.1991C79.9373 37.4691 81.2973 40.6691 82.5073 43.9291C84.9673 50.5491 88.2373 56.5591 94.3573 60.5891C94.9373 60.9691 95.3573 61.8291 95.5173 62.5491C96.7773 68.0391 97.9373 73.5491 99.1673 79.0491C99.2773 79.5491 99.6273 79.9991 100.027 80.8091V80.8091ZM117.317 120.799C115.397 114.939 111.847 111.099 106.717 108.949C102.987 107.389 99.0073 108.489 96.9873 111.359C95.6373 113.279 94.6173 115.449 93.5673 117.559C93.0673 118.559 92.8273 119.699 92.4673 120.799H117.317V120.799Z" fill="#18191B"/>
<path d="M66.0174 90.2977L53.7974 88.5477L57.9574 84.3877L70.2274 86.0977L66.0174 90.2977Z" fill="white"/>
<path d="M52.0374 76.3282L53.7973 88.5482L57.9574 84.3882L56.2474 72.1182L52.0374 76.3282Z" fill="white"/>
<path d="M72.8274 83.4981L60.6074 81.7381L64.7674 77.5781L77.0374 79.2881L72.8274 83.4981Z" fill="white"/>
<path d="M58.8474 69.5186L60.6074 81.7386L64.7674 77.5786L63.0574 65.3086L58.8474 69.5186Z" fill="white"/>
</svg>
