<svg width="256" height="256" viewBox="0 0 256 256" fill="none" xmlns="http://www.w3.org/2000/svg">
<path d="M228 108.928C228 99.9711 221.203 92.934 212.486 92.934H185.697C184.178 88.5357 180.659 85.0171 176.261 83.4977V77.4202C176.261 68.8636 169.303 61.9863 160.827 61.9863H157.388C151.391 61.9863 146.113 65.425 143.554 70.5429C140.995 65.5049 135.797 61.9863 129.719 61.9863H126.361C118.204 61.9863 111.567 68.3038 110.927 76.2206H65.585C57.0284 76.2206 50.0712 83.1779 50.0712 91.7344V93.4937C44.7933 94.8532 40.6349 98.8516 39.0356 104.05C32.6381 105.969 28 111.886 28 118.844V124.841C28 131.559 32.3183 137.316 38.3159 139.475V178.5C38.3159 187.056 45.2731 194.014 53.8297 194.014H67.5042C73.4218 194.014 78.5398 190.735 81.1787 185.857C82.3783 186.177 83.5778 186.257 84.8573 186.257H98.5318C99.7313 186.257 100.851 186.097 101.89 185.857C104.529 190.575 109.567 193.774 115.405 193.774H129.16C132.438 193.774 135.397 192.734 137.876 191.055C140.435 192.894 143.474 193.934 146.832 193.934H160.507C169.064 193.934 176.021 186.976 176.021 178.42V169.223C176.021 169.223 176.021 168.824 176.021 168.584H212.486C221.043 168.584 228 161.626 228 153.15V127.32C228 124.841 227.28 122.442 226.081 120.443C227.28 118.444 228 116.045 228 113.566V108.928Z" fill="#865FEE"/>
<path d="M160.666 165.705H146.912C144.992 165.705 143.393 167.224 143.393 169.223V178.42C143.393 180.339 144.912 181.938 146.912 181.938H160.666C162.585 181.938 164.185 180.419 164.185 178.42V169.223C164.185 167.304 162.665 165.705 160.666 165.705Z" fill="white"/>
<path d="M214.245 115.245C215.205 115.245 216.005 114.525 216.005 113.566V108.927C216.005 106.448 214.485 104.929 212.486 104.929H178.18C176.181 104.929 174.581 103.33 174.581 101.331V98.0518C174.581 96.1326 172.982 94.6132 171.063 94.6132H167.704C165.785 94.6132 164.185 93.0938 164.185 91.0946V77.2602C164.185 75.3409 162.666 73.8215 160.747 73.8215H157.308C155.389 73.8215 153.789 75.3409 153.789 77.3401V80.6988C153.789 82.618 152.27 84.2174 150.271 84.2174H136.516C134.597 84.2174 132.998 82.698 132.998 80.6988V77.3401C132.998 75.4209 131.478 73.8215 129.479 73.8215H126.121C124.201 73.8215 122.602 75.3409 122.602 77.3401V84.6172C122.602 86.5364 121.083 88.1358 119.083 88.1358H65.5848C63.6655 88.1358 62.0662 89.6552 62.0662 91.6544V101.49C62.0662 103.41 60.5468 105.009 58.5476 105.009H53.8295C51.9102 105.009 50.3109 106.528 50.3109 108.528V111.886C50.3109 113.806 48.7915 115.405 46.7923 115.405H43.4336C41.5144 115.405 39.915 116.924 39.915 118.923V124.921C39.915 126.84 41.4344 128.44 43.4336 128.44H46.7923C48.7115 128.44 50.3109 129.959 50.3109 131.958V178.66C50.3109 180.579 51.8303 182.178 53.8295 182.178H67.504C69.4232 182.178 71.0226 180.579 71.0226 178.66V160.187C71.0226 158.188 72.7019 156.508 74.7011 156.508H77.6599C79.6591 156.508 81.3385 158.108 81.3385 160.187V170.903C81.3385 172.822 82.8579 174.421 84.8571 174.421H98.5316C100.451 174.421 102.05 172.902 102.05 170.903V160.187C102.05 158.188 103.73 156.508 105.729 156.508H108.528C110.447 156.508 111.966 158.108 111.966 160.027V178.5C111.966 180.419 113.486 182.018 115.485 182.018H129.239C131.159 182.018 132.758 180.499 132.758 178.5V158.748C132.758 157.228 131.558 156.029 130.039 156.029H126.36C124.441 156.029 122.842 154.509 122.842 152.59V108.368C122.842 106.448 124.361 104.849 126.28 104.849H129.639C131.558 104.849 133.158 106.369 133.158 108.368V142.754C133.158 144.673 134.677 146.273 136.676 146.273H139.955C141.874 146.273 143.474 147.792 143.474 149.791V153.15C143.474 155.069 144.993 156.668 146.912 156.668H212.486C214.405 156.668 216.005 155.149 216.005 153.23V127.4C216.005 126.44 215.205 125.721 214.245 125.721C212.326 125.721 210.807 124.121 210.807 122.202V118.844C210.807 116.924 212.326 115.405 214.245 115.325V115.245ZM189.055 118.764C189.055 116.844 190.655 115.245 192.574 115.245H195.933C197.852 115.245 199.451 116.844 199.451 118.764V122.122C199.451 124.041 197.852 125.641 195.933 125.641H192.574C190.655 125.641 189.055 124.041 189.055 122.122V118.764ZM153.869 108.368C153.869 106.448 155.469 104.849 157.388 104.849H160.747C162.666 104.849 164.265 106.448 164.265 108.368V111.726C164.265 113.646 162.746 115.245 160.747 115.245H157.388C155.469 115.245 153.869 113.646 153.869 111.726V108.368Z" fill="white"/>
</svg>
