<svg width="421" height="211" viewBox="0 0 421 211" fill="none" xmlns="http://www.w3.org/2000/svg">
<path d="M204.166 134.968H164.546V75.0879H179.566V122.428H204.156V134.968H204.166Z" fill="white"/>
<path d="M210.686 134.968V123.988H224.576V86.4579H211.886V75.0879H239.246V124.058H252.006V135.038H210.686V134.968V134.968Z" fill="white"/>
<path d="M259.296 121.718C259.296 113.288 265.536 108.398 277.576 107.478L287.076 106.768V103.298C287.076 100.318 284.876 98.478 281.406 98.478C278.356 98.478 275.946 99.968 275.236 102.238H260.996C261.846 93.238 269.856 87.708 281.906 87.708C293.956 87.708 301.536 93.448 301.536 103.798V135.048H287.646V129.308H286.366C284.026 133.348 279.346 135.758 273.756 135.758C265.106 135.758 259.226 130.088 259.226 121.798L259.296 121.728V121.718ZM287.076 117.328V115.198L280.416 115.768C275.876 116.118 273.616 117.748 273.616 120.658C273.616 123.278 275.746 124.908 279.146 124.908C283.966 124.908 287.086 121.928 287.086 117.328H287.076Z" fill="white"/>
<path d="M357.666 134.968H345.476V102.937C345.476 100.957 344.196 99.5375 342.426 99.5375C340.656 99.5375 339.376 100.957 339.376 102.937V134.968H327.396V102.937C327.396 100.877 326.116 99.5375 324.346 99.5375C322.576 99.5375 321.296 100.887 321.296 102.937V134.968H309.106V88.7575H321.796V96.4075H323.356C324.276 90.6675 327.326 87.6875 332.076 87.6875C336.186 87.6875 339.026 90.6675 339.946 95.9075H341.506C342.356 90.6675 345.196 87.6875 349.446 87.6875C354.616 87.6875 357.526 91.4475 357.526 98.0375V134.957H357.666V134.968Z" fill="white"/>
<path d="M363.326 121.718C363.326 113.288 369.566 108.398 381.606 107.478L391.106 106.768V103.298C391.106 100.318 388.906 98.478 385.436 98.478C382.386 98.478 379.976 99.968 379.266 102.238H365.026C365.876 93.238 373.886 87.708 385.936 87.708C397.986 87.708 405.566 93.448 405.566 103.798V135.048H391.676V129.308H390.396C388.056 133.348 383.376 135.758 377.786 135.758C369.136 135.758 363.256 130.088 363.256 121.798L363.326 121.728V121.718ZM391.106 117.328V115.198L384.446 115.768C379.906 116.118 377.646 117.748 377.646 120.658C377.646 123.278 379.776 124.908 383.176 124.908C387.996 124.908 391.116 121.928 391.116 117.328H391.106Z" fill="white"/>
<path d="M184.356 179.378H175.296L173.606 187.248H164.546L174.656 151.448H185.786L195.946 187.248H186.046L184.396 179.378H184.356V179.378ZM176.736 172.818H182.956L180.116 159.488H179.646L176.726 172.818H176.736Z" fill="white"/>
<path d="M198.576 187.198V180.638H206.996V166.118H199.296V159.558H215.466V180.588H223.206V187.148H198.576V187.188V187.198ZM205.726 149.828C205.726 146.868 207.846 145.048 211.266 145.048C214.686 145.048 216.806 146.868 216.806 149.828C216.806 152.788 214.686 154.608 211.266 154.608C207.846 154.608 205.726 152.788 205.726 149.828Z" fill="white"/>
<path d="M240.766 181.278H248.386V187.248H227.436V181.278H232.426V165.578H226.926V159.608H240.846V166.718H242.326C243.676 161.008 246.096 158.888 251.216 158.888C252.736 158.888 254.056 159.058 255.106 159.438V168.368C253.876 167.858 252.056 167.568 250.446 167.568C243.586 167.568 240.756 169.768 240.756 175.098V181.278H240.766Z" fill="white"/>
<path d="M266.116 166.508H258.796V159.988H266.116V158.508C266.116 151.738 268.786 149.498 276.776 149.498H285.026V155.378H277.066C275.456 155.378 274.656 156.228 274.656 157.828V159.988H285.066V166.508H274.906V187.208H266.146V166.508H266.106H266.116Z" fill="white"/>
<path d="M288.426 175.608V171.248C288.426 163.668 293.546 158.978 301.716 158.978C309.886 158.978 315.006 163.678 315.006 171.248V175.608C315.006 183.188 309.886 187.878 301.716 187.878C293.546 187.878 288.426 183.178 288.426 175.608ZM297.016 171.498V175.388C297.016 178.988 298.836 181.268 301.716 181.268C304.596 181.268 306.416 178.978 306.416 175.388V171.498C306.416 167.898 304.596 165.618 301.716 165.618C298.836 165.618 297.016 167.908 297.016 171.498Z" fill="white"/>
<path d="M331.926 181.278H339.546V187.248H318.596V181.278H323.586V165.578H318.086V159.608H332.006V166.718H333.486C334.836 161.008 337.256 158.888 342.376 158.888C343.896 158.888 345.216 159.058 346.266 159.438V168.368C345.036 167.858 343.216 167.568 341.606 167.568C334.746 167.568 331.916 169.768 331.916 175.098V181.278H331.926Z" fill="white"/>
<path d="M367.136 169.848C366.756 166.848 365.526 165.618 362.986 165.618C360.146 165.618 358.586 168.118 358.586 172.648V174.128C358.586 178.658 360.156 181.158 362.986 181.158C365.566 181.158 366.706 180.058 367.136 177.218H375.686C375.136 184.328 370.946 187.878 362.986 187.878C354.356 187.878 349.786 183.308 349.786 174.628V172.128C349.786 163.448 354.356 158.878 362.986 158.878C370.946 158.878 375.086 162.478 375.686 169.878H367.136V169.838V169.848Z" fill="white"/>
<path d="M405.566 179.078C405.186 184.158 399.896 187.838 393.036 187.838C384.616 187.838 379.836 183.398 379.836 175.518V170.948C379.836 163.708 385.126 158.928 393.036 158.928C400.446 158.928 405.516 163.748 405.516 170.858V175.298H388.376V176.988C388.376 179.698 390.236 181.558 392.986 181.558C395.186 181.558 397.096 180.458 397.386 179.018H405.556V179.058L405.566 179.078ZM388.386 170.318H397.146C397.146 167.098 395.536 165.198 392.826 165.198C390.116 165.198 388.386 167.148 388.386 170.318V170.318Z" fill="white"/>
<path d="M31.7659 163.817C29.9459 163.277 26.7059 159.737 27.0459 157.877C27.6959 154.247 27.8459 152.787 28.5159 149.167C28.7159 148.087 25.4459 145.957 24.2959 145.497C23.0959 145.017 21.1659 136.207 21.6259 135.157C23.1959 131.587 26.7459 130.427 28.4559 126.927C29.1859 125.437 32.1958 128.777 31.9058 127.117C31.6458 125.687 34.3759 123.417 34.2659 121.817C35.6359 121.607 40.0759 121.997 41.4159 121.787C41.6159 122.727 43.2859 123.917 43.3959 124.687C44.1559 129.957 42.5959 134.437 46.2559 138.097C49.6259 141.457 53.4359 144.137 58.0659 145.427C65.3459 147.457 71.9359 145.497 78.0959 141.597C84.2459 137.707 88.2259 131.987 91.3159 125.567C91.9059 124.337 92.4359 123.827 93.9259 124.227C97.1259 125.087 100.396 125.707 103.646 126.407C105.416 126.787 106.686 127.697 107.356 129.477C107.926 131.007 108.736 132.447 109.356 133.957C109.746 134.897 110.256 135.157 111.296 134.997C114.096 134.557 114.096 134.617 114.686 137.427C114.936 138.617 115.126 139.817 115.476 140.977C115.586 141.327 117.116 141.137 117.126 140.797C117.186 139.427 117.276 138.027 117.076 136.687C116.526 133.037 118.906 130.997 121.286 128.577C121.916 130.167 122.476 131.557 123.006 132.957C124.176 136.067 125.296 139.197 126.506 142.287C126.856 143.187 126.836 143.807 126.166 144.567C124.356 146.627 122.646 148.757 121.296 150.377C118.956 150.367 117.046 150.177 115.196 150.437C114.446 150.547 113.776 151.577 113.186 152.277C110.956 154.947 110.976 154.967 107.756 153.637C107.706 153.617 107.656 153.607 107.606 153.577C100.906 149.317 93.4159 150.367 86.0859 150.367C85.7459 150.367 85.2159 150.857 85.1159 151.217C84.8659 152.097 85.4459 152.337 86.2559 152.467C92.3259 153.437 98.1659 155.227 103.826 157.627C104.606 157.957 105.386 158.297 106.096 158.747C108.246 160.077 110.546 159.897 112.836 159.407C113.456 159.277 114.026 158.607 114.486 158.067C115.616 156.767 116.666 155.397 117.926 153.817C118.816 155.227 119.556 156.367 120.266 157.527C121.206 159.067 122.506 159.257 123.796 157.957C124.336 157.417 124.736 156.737 125.196 156.107C129.116 160.317 125.806 169.697 118.106 170.027C118.496 168.907 118.856 167.857 119.246 166.737C117.846 166.357 116.716 166.387 115.776 167.427C115.566 167.657 115.266 167.817 115.066 168.057C113.276 170.207 111.006 171.157 108.236 170.627C107.186 170.427 106.016 170.247 105.176 169.667C100.386 166.377 95.5959 163.087 90.0359 161.167C88.1459 160.517 86.1959 159.997 84.3059 159.347C83.0059 158.897 82.4559 159.597 82.0459 160.627C81.5959 161.767 82.6559 161.757 83.1959 162.117C87.2659 164.757 91.3359 167.397 95.4159 170.017C96.4759 170.697 106.246 175.637 105.356 176.197C102.956 177.697 95.6259 185.287 93.0559 186.407C84.9359 189.967 71.3459 180.697 62.5859 180.807C61.7059 180.817 60.8259 180.807 59.7459 180.807C59.9259 182.567 60.1258 184.077 60.2158 185.587C60.2458 186.107 60.1359 187.007 59.8859 187.087C59.2159 187.297 58.2759 187.427 57.7259 187.107C56.2759 186.257 54.9459 185.197 53.6259 184.147C44.6159 176.987 38.8659 167.757 36.2959 156.547C36.1859 156.087 36.2559 155.557 36.0559 155.157C35.7659 154.567 35.4659 155.497 35.2859 156.027C34.6559 157.867 35.3659 160.147 34.8359 162.027C34.7059 162.477 31.9159 163.277 31.7759 163.817H31.7659Z" fill="white"/>
<path d="M109.576 93.4974C107.026 95.3974 104.716 97.4774 100.916 96.7074C96.696 95.8474 92.366 95.2274 88.076 95.1674C76.426 94.9974 64.766 95.1874 53.106 95.2274C49.986 95.2374 48.126 93.1574 48.396 90.0174C48.646 87.1274 48.836 84.2374 49.086 81.3474C49.146 80.6274 50.976 68.4674 51.776 65.9774C52.076 65.0274 52.426 64.0874 52.766 63.1474C53.366 61.4874 54.396 60.2474 56.056 59.5074C57.836 58.7174 59.576 57.8174 61.306 56.9274C62.406 56.3574 109.696 93.2474 109.586 93.4974H109.576Z" fill="white"/>
<path d="M61.5759 54.5576L51.1058 57.4976L45.4359 62.7976L44.0159 94.3276L55.4459 97.3276H102.676C102.676 97.3276 111.036 96.3076 110.146 93.5576C109.256 90.8176 67.6959 58.2576 67.6959 58.2576L61.5659 54.5576H61.5759Z" fill="#F01010"/>
<path d="M38.726 83.1882C37.226 79.5282 35.696 75.9982 34.316 72.4182C32.456 67.6082 30.536 62.7982 28.946 57.8982C27.206 52.5382 26.9161 46.9682 26.9561 41.3282C26.9861 37.7482 27.966 34.8982 30.096 32.0582C33.636 27.3382 37.816 23.2582 42.006 19.1682C42.256 18.9182 46.8261 40.6682 45.2061 44.5782C42.3661 51.4482 39.8361 58.4281 38.2761 65.7481C37.3161 70.2181 38.7861 74.3082 39.4561 78.5382C39.5661 79.2682 39.816 79.9682 40.006 80.6882C40.396 82.1982 40.376 82.2582 38.736 83.1882H38.726Z" fill="white"/>
<path d="M101.156 80.8673C100.746 80.0573 100.406 79.6073 100.296 79.1073C99.0659 73.6073 97.906 68.0973 96.646 62.6073C96.486 61.8973 96.0659 61.0273 95.4859 60.6473C89.3659 56.6173 86.0959 50.6073 83.6359 43.9873C82.4259 40.7273 81.0659 37.5173 79.8759 34.2573C79.6359 33.5873 79.6159 32.6273 79.9159 32.0073C81.4259 28.8873 85.8059 23.2473 86.2459 23.5773C90.2059 26.5773 93.3359 30.2173 95.9359 34.4973C98.5359 38.7873 101.266 42.9873 102.986 47.7273C106.876 58.4873 106.586 69.1273 101.846 79.5873C101.716 79.8673 101.556 80.1373 101.156 80.8673Z" fill="white"/>
<path d="M118.436 120.858H93.5859C93.9559 119.758 94.1859 118.618 94.6859 117.618C95.7359 115.508 96.7459 113.328 98.1059 111.418C100.126 108.558 104.116 107.458 107.836 109.008C112.966 111.158 116.516 114.998 118.436 120.858Z" fill="white"/>
<path opacity="0.2" d="M45.9858 127.998C45.9858 127.998 37.2958 146.198 40.3658 157.428C43.4258 168.658 52.1958 174.358 65.8558 172.958C78.3358 171.678 81.9758 160.878 81.9758 160.878L85.7759 160.548L101.646 170.638L99.4359 182.448C99.4359 182.448 76.3458 186.158 68.5558 187.308C60.7658 188.458 59.5358 190.178 57.4958 189.158C55.4558 188.138 36.4358 165.028 36.0458 164.648C35.6558 164.268 28.5659 170.078 28.5659 168.418C28.5659 166.758 25.2958 158.768 25.1658 156.848C25.0358 154.938 24.2759 139.358 24.2759 139.358L27.5958 120.388L32.1959 114.108C32.1959 114.108 47.8958 105.008 45.9858 127.988V127.998Z" fill="#18191B"/>
<path opacity="0.2" d="M86.2559 152.468C86.2559 152.468 99.7959 156.548 104.646 160.698C109.496 164.848 116.516 161.148 117.416 159.678C118.306 158.208 122.596 161.118 119.246 166.748C115.896 172.378 116.656 174.358 116.656 174.358C116.656 174.358 126.486 170.848 127.316 164.848C128.146 158.848 127.316 155.338 127.316 155.338L126.036 153.358C126.036 153.358 130.186 147.228 128.976 143.078C127.766 138.928 120.426 123.978 120.426 123.978L116.856 128.208L115.836 136.698L117.126 140.798L119.896 142.318C121.436 143.168 122.646 144.598 123.026 146.318C123.496 148.458 122.816 151.208 117.566 153.038C110.746 155.418 111.736 161.148 106.036 156.998C100.336 152.848 93.2958 151.128 86.2858 152.468H86.2559Z" fill="#18191B"/>
<path opacity="0.2" d="M93.5859 120.858C93.5859 120.858 97.4559 112.398 104.896 112.448C110.216 112.488 113.726 120.858 113.726 120.858H118.436C118.436 120.858 121.906 121.078 118.836 114.578C115.766 108.078 102.576 106.718 102.576 106.718L93.0459 109.018L93.5759 120.858H93.5859Z" fill="#18191B"/>
<path opacity="0.2" d="M28.1759 35.2877C28.1759 35.2877 28.426 53.9377 33.396 55.2277C39.946 56.9177 40.926 22.9377 40.396 20.7377C39.866 18.5477 41.886 16.8877 41.886 16.8877C41.886 16.8877 49.436 23.1477 47.526 45.7377C45.616 68.3377 42.416 62.4577 42.806 74.7177C43.186 86.9777 39.746 91.1877 39.746 91.1877L35.7859 84.2177L30.806 69.1977L25.826 51.1777V40.2477C25.826 40.2477 25.186 30.1577 28.126 34.7577" fill="#18191B"/>
<path opacity="0.2" d="M78.9659 28.2479C78.9659 28.2479 83.4559 45.3579 92.6859 53.5279C101.906 61.6979 104.466 64.1479 99.9959 51.1779C95.5259 38.2079 85.8259 24.6879 82.8859 22.3779C82.8859 22.3779 84.5459 19.9479 86.9759 22.3779C89.4059 24.8079 103.066 39.4979 105.676 51.1779C108.296 62.8579 105.266 80.6579 102.546 83.1879C99.8259 85.7179 92.6859 73.1879 92.6859 73.1879L87.4859 59.6579L81.9859 45.6179L76.7959 33.1079L78.9759 28.2579L78.9659 28.2479Z" fill="#18191B"/>
<path opacity="0.2" d="M54.9159 60.1581C54.9159 60.1581 50.8559 62.6581 59.9659 69.5781C66.4259 74.4781 59.7459 81.5781 73.9459 83.5581C87.4259 85.4281 92.6559 90.5081 97.4559 92.5881C102.326 94.6981 106.716 95.7781 109.576 93.4981C109.576 93.4981 114.176 97.4381 100.776 98.3281C87.3759 99.2181 50.5959 103.558 48.1759 95.5181C45.7559 87.4781 47.0259 82.8381 47.0259 82.8381C47.0259 82.8381 46.7459 55.4181 54.9159 60.1481V60.1581Z" fill="#18191B"/>
<path d="M127.676 135.078C128.776 137.838 129.646 140.158 130.626 142.418C131.096 143.498 131.156 144.408 130.366 145.338C127.936 148.198 127.516 151.238 129.586 154.448C131.826 157.928 131.776 162.358 129.746 165.958C128.336 168.448 127.726 171.378 126.626 174.058C126.386 174.638 125.676 175.278 125.076 175.478C123.836 175.898 122.506 176.148 121.196 176.278C118.476 176.498 117.136 178.028 115.346 181.028C98.2159 203.798 67.7159 187.298 65.8659 190.278C68.9259 204.238 39.4559 186.258 35.5359 171.958C34.3459 167.618 34.3259 175.788 30.8659 174.038C20.7359 168.898 24.6359 148.928 23.3659 148.218C22.3859 147.668 22.4459 152.348 19.7659 150.898C16.4059 149.088 16.4459 132.108 24.6959 123.158C26.3059 120.898 26.2159 120.628 24.0959 118.708C22.5859 117.338 22.1159 115.158 22.9259 113.288C23.6759 111.548 24.5359 109.848 25.1859 108.068C25.6359 106.808 26.3459 106.448 27.6559 106.448C39.7459 106.318 54.3059 106.378 56.9859 105.168C59.1959 104.168 38.5459 104.228 36.8759 103.258C34.8159 102.058 30.1459 99.9477 28.1359 99.0177C27.7259 98.8277 27.6759 98.2777 28.0159 97.9977C29.4259 96.8577 30.6959 95.8077 32.0259 94.8477C32.8959 94.2177 33.2659 93.5577 33.1559 92.4677C32.5459 86.5377 32.1159 80.5877 31.3459 74.6777C31.0459 72.4177 30.1459 70.2077 29.2759 68.0777C26.6259 61.5777 24.7959 54.8577 24.2059 47.8877C23.8659 43.8677 24.1259 39.7677 24.4359 35.7277C24.5359 34.3877 25.4359 32.9677 26.3059 31.8377C28.4959 28.9977 30.7259 26.1677 33.2059 23.5877C35.9359 20.7377 38.9259 18.1277 41.8559 15.4777C43.0159 14.4277 44.5659 14.6177 45.3959 15.9077C47.3259 18.9277 49.2159 21.9777 51.0459 25.0677C51.3959 25.6577 51.4759 26.4777 51.4659 27.1877C51.4359 31.5277 51.4159 35.8577 51.2159 40.1877C51.1459 41.6377 50.7459 43.0477 50.0859 44.3477C49.2759 45.9377 48.9459 47.4077 49.4459 49.1777C50.0759 51.3877 50.4459 53.6777 50.9559 56.0677C54.0159 54.9577 56.9259 54.0377 59.7059 52.8277C61.2159 52.1677 62.3659 52.2377 63.6559 53.1777C69.8859 57.6977 76.1459 62.1777 82.4059 66.6777C82.6959 66.8877 82.9959 67.0877 83.2659 67.2777C83.4259 67.1877 83.5759 67.1477 83.5859 67.0877C84.2859 61.4777 84.9659 55.9277 82.4759 50.4677C79.9759 44.9977 77.7959 39.3877 75.5459 33.8177C75.3059 33.2177 75.2859 32.2377 75.5059 31.6377C77.0459 27.4577 78.6659 23.3077 80.3159 19.1577C80.8059 17.9277 82.6959 17.7177 83.9159 18.6977C90.5559 24.0177 96.3459 30.0977 100.656 37.5077C103.096 41.6877 105.806 45.6977 106.916 50.5677C108.456 57.3077 108.846 64.0677 107.406 70.8177C106.556 74.8177 105.136 78.6877 104.066 82.6377C103.936 83.1377 104.226 83.9377 104.596 84.3577C106.916 87.0177 109.356 89.5877 111.676 92.2477C113.076 93.8477 113.026 94.3077 111.516 95.8377C110.706 96.6477 109.756 97.3177 108.706 98.1877L111.606 102.018C111.856 102.348 111.776 102.808 111.406 103.008C109.676 103.918 108.836 106.508 110.326 106.508C122.786 106.458 133.236 106.478 145.696 106.478C147.086 106.478 148.226 107.588 148.256 108.978C148.416 115.968 147.346 122.778 144.416 129.138C143.386 131.368 141.716 133.508 139.836 135.078C136.706 137.678 132.996 137.428 129.366 135.868C128.946 135.688 128.536 135.478 127.686 135.078H127.676ZM32.6159 162.448C34.1559 161.258 33.9359 156.798 34.5759 154.958C34.7659 154.418 35.7559 154.568 36.0459 155.158C36.2459 155.558 36.1859 156.088 36.2859 156.548C38.8559 167.758 44.6059 176.978 53.6159 184.148C54.9359 185.198 56.2659 186.268 57.7159 187.108C58.2659 187.428 59.2059 187.298 59.8759 187.088C60.1259 187.008 60.2359 186.108 60.2059 185.588C60.1159 184.078 59.9159 182.568 59.7359 180.808C60.8159 180.808 61.6959 180.808 62.5759 180.808C71.3359 180.698 82.9859 185.858 91.1059 182.308C93.6759 181.178 95.9959 179.468 98.3859 177.958C99.2759 177.398 99.4659 176.698 98.4059 176.018C94.3259 173.398 87.2559 164.758 83.1859 162.118C82.6359 161.768 81.5759 161.778 82.0359 160.628C82.4459 159.598 82.9959 158.908 84.2959 159.348C86.1959 159.998 88.1359 160.508 90.0259 161.168C95.5759 163.088 100.366 166.368 105.166 169.668C106.016 170.248 107.176 170.438 108.226 170.628C110.996 171.148 113.266 170.208 115.056 168.058C115.256 167.818 115.556 167.668 115.766 167.428C116.706 166.388 117.836 166.358 119.236 166.738C118.846 167.858 118.486 168.908 118.096 170.028C125.786 169.688 129.106 160.318 125.186 156.108C124.716 156.738 124.316 157.418 123.786 157.958C122.496 159.258 121.206 159.068 120.256 157.528C119.546 156.368 118.806 155.228 117.916 153.818C116.646 155.388 115.596 156.758 114.476 158.068C114.016 158.598 113.446 159.278 112.826 159.408C110.566 159.888 108.286 160.078 106.166 158.798C105.466 158.378 104.446 157.898 103.686 157.578C98.0759 155.208 92.2759 153.438 86.2559 152.478C85.4459 152.348 84.8659 152.108 85.1159 151.228C85.2159 150.868 85.7459 150.378 86.0859 150.378C93.4159 150.378 100.916 149.328 107.606 153.588C107.646 153.618 107.706 153.628 107.756 153.648C110.976 154.968 110.956 154.958 113.186 152.288C113.776 151.578 114.446 150.548 115.196 150.448C117.046 150.188 118.946 150.378 121.296 150.388C122.646 148.768 124.356 146.638 126.166 144.578C126.826 143.828 126.856 143.198 126.506 142.298C125.286 139.208 124.176 136.078 123.006 132.968C122.476 131.568 121.906 130.178 121.286 128.588C118.906 131.008 116.526 133.038 117.076 136.698C117.276 138.038 117.186 139.438 117.126 140.808C117.116 141.158 117.256 141.698 116.516 141.828C115.776 141.958 115.586 141.348 115.476 140.988C115.116 139.838 114.936 138.628 114.686 137.438C114.096 134.628 114.086 134.568 111.296 135.008C110.256 135.168 109.746 134.908 109.356 133.968C108.736 132.458 107.936 131.018 107.356 129.488C106.586 127.438 105.016 126.548 102.806 126.278C99.7959 125.908 96.8659 125.028 93.9359 124.238C92.4459 123.838 91.9159 124.338 91.3259 125.578C88.2359 131.998 84.2459 137.718 78.1059 141.608C71.9459 145.508 65.3659 147.468 58.0759 145.438C53.4459 144.148 49.6359 141.468 46.2659 138.108C42.6059 134.458 39.7559 130.348 38.9959 125.078V125.058C38.7959 123.688 37.4759 122.778 36.1159 122.988H36.0759C35.2159 123.128 34.5959 123.888 34.6359 124.758C34.6759 125.798 34.7159 126.788 34.8959 127.758C35.1959 129.418 32.4359 130.808 29.7559 133.708C27.0759 136.608 24.3159 141.578 26.8059 145.708C28.4559 148.438 31.1259 147.378 30.9259 148.458C30.2559 152.078 28.3959 152.768 29.2659 158.648C29.5459 160.518 31.0959 163.678 32.6559 162.478L32.6159 162.448ZM109.566 93.4977C109.676 93.2477 62.3859 56.3477 61.2859 56.9277C59.5559 57.8277 57.8159 58.7177 56.0359 59.5077C54.3759 60.2477 53.3459 61.4877 52.7459 63.1477C52.4059 64.0877 52.0559 65.0277 51.7559 65.9777C50.9559 68.4677 49.1259 80.6277 49.0659 81.3477C48.8259 84.2377 48.6259 87.1277 48.3759 90.0177C48.1059 93.1577 49.9659 95.2377 53.0859 95.2277C64.7459 95.1877 76.4059 94.9977 88.0559 95.1677C92.3459 95.2277 96.6859 95.8577 100.896 96.7077C104.706 97.4777 107.006 95.3977 109.556 93.4977H109.566ZM38.7159 83.1777C40.3559 82.2477 40.3759 82.1877 39.9859 80.6777C39.7959 79.9677 39.5559 79.2577 39.4359 78.5277C38.7759 74.2977 37.3059 70.2077 38.2559 65.7377C39.8259 58.4177 42.3559 51.4377 45.1859 44.5677C46.2459 42.0077 44.5459 31.9177 43.2459 25.2477C42.7259 22.5877 39.4459 21.6077 37.5459 23.5377C34.8959 26.2177 32.3559 28.9977 30.0659 32.0477C27.9359 34.8877 26.9559 37.7377 26.9259 41.3177C26.8859 46.9577 27.1659 52.5277 28.9159 57.8877C30.5059 62.7977 32.4259 67.5977 34.2859 72.4077C35.6759 75.9877 37.1959 79.5277 38.6959 83.1777H38.7159ZM101.146 80.8677C101.536 80.1377 101.706 79.8677 101.836 79.5877C106.586 69.1277 106.876 58.4877 102.976 47.7277C101.266 42.9877 98.5359 38.7877 95.9259 34.4977C93.9459 31.2377 91.6559 28.3477 88.9259 25.8277C87.5059 24.5177 85.2859 24.6277 84.0559 26.1077C82.5759 27.8977 80.7359 30.2877 79.9059 32.0077C79.6059 32.6277 79.6159 33.5877 79.8659 34.2577C81.0559 37.5277 82.4159 40.7277 83.6259 43.9877C86.0859 50.6077 89.3559 56.6177 95.4759 60.6477C96.0559 61.0277 96.4759 61.8877 96.6359 62.6077C97.8959 68.0977 99.0559 73.6077 100.286 79.1077C100.396 79.6077 100.746 80.0577 101.146 80.8677V80.8677ZM118.436 120.858C116.516 114.998 112.966 111.158 107.836 109.008C104.106 107.448 100.126 108.548 98.1059 111.418C96.7559 113.338 95.7359 115.508 94.6859 117.618C94.1859 118.618 93.9459 119.758 93.5859 120.858H118.436Z" fill="#18191B"/>
<path d="M67.1358 90.3563L54.9158 88.6063L59.0758 84.4463L71.3458 86.1563L67.1358 90.3563Z" fill="#FFBA00"/>
<path d="M53.1558 76.3868L54.9158 88.6068L59.0758 84.4468L57.3658 72.1768L53.1558 76.3868Z" fill="#FFBA00"/>
<path d="M73.9459 83.5467L61.7258 81.7967L65.8859 77.6367L78.1558 79.3467L73.9459 83.5467Z" fill="#FFBA00"/>
<path d="M59.9658 69.5772L61.7258 81.7972L65.8859 77.6372L64.1758 65.3672L59.9658 69.5772Z" fill="#FFBA00"/>
<path d="M43.4758 14.8078C44.2058 14.8078 44.9058 15.1879 45.3758 15.9179C47.3058 18.9379 49.1959 21.9879 51.0259 25.0779C51.3759 25.6679 51.4558 26.4878 51.4458 27.1978C51.4158 31.5378 51.3958 35.8679 51.1958 40.1979C51.1258 41.6479 50.7258 43.0578 50.0658 44.3578C49.2558 45.9478 48.9258 47.4179 49.4258 49.1879C50.0558 51.3979 50.4258 53.6879 50.9358 56.0779C53.9958 54.9679 56.9058 54.0479 59.6858 52.8379C60.3458 52.5479 60.9358 52.4079 61.4958 52.4079C62.2258 52.4079 62.9159 52.6579 63.6459 53.1879C69.8759 57.7079 76.1359 62.1879 82.3959 66.6879C82.6859 66.8979 82.9858 67.0978 83.2558 67.2878C83.4158 67.1978 83.5659 67.1578 83.5759 67.0978C84.2759 61.4878 84.9558 55.9379 82.4658 50.4779C79.9658 45.0079 77.7858 39.3979 75.5358 33.8279C75.2958 33.2279 75.2758 32.2479 75.4958 31.6479C77.0358 27.4679 78.6558 23.3179 80.3058 19.1679C80.5858 18.4579 81.3259 18.0879 82.1459 18.0879C82.7459 18.0879 83.3858 18.2879 83.9058 18.7079C90.5458 24.0279 96.3359 30.1079 100.646 37.5179C103.086 41.6979 105.796 45.7079 106.906 50.5779C108.446 57.3179 108.836 64.0779 107.396 70.8279C106.546 74.8279 105.126 78.6978 104.056 82.6479C103.926 83.1479 104.216 83.9479 104.586 84.3679C106.906 87.0279 109.346 89.5979 111.666 92.2579C113.066 93.8579 113.016 94.3178 111.506 95.8478C110.696 96.6578 109.746 97.3279 108.696 98.1979L111.596 102.028C111.846 102.358 111.766 102.818 111.396 103.018C109.666 103.928 108.836 106.518 110.306 106.518C116.636 106.488 122.456 106.488 128.276 106.488C134.096 106.488 139.556 106.488 145.676 106.488C147.066 106.488 148.206 107.598 148.236 108.988C148.396 115.978 147.326 122.788 144.396 129.148C143.366 131.378 141.696 133.518 139.816 135.088C138.146 136.468 136.316 137.048 134.416 137.048C132.756 137.048 131.036 136.608 129.346 135.878C128.926 135.698 128.516 135.488 127.676 135.088C128.776 137.848 129.646 140.168 130.626 142.428C131.096 143.508 131.156 144.418 130.366 145.348C127.936 148.208 127.516 151.248 129.586 154.458C131.826 157.938 131.776 162.368 129.746 165.968C128.336 168.458 127.726 171.388 126.626 174.068C126.386 174.658 125.676 175.288 125.076 175.488C123.836 175.908 122.506 176.158 121.196 176.288C118.476 176.508 117.136 178.038 115.346 181.038C108.066 190.718 98.3658 193.298 89.4758 193.298C79.3058 193.298 70.1958 189.918 66.9958 189.918C66.4158 189.918 66.0258 190.028 65.8658 190.298C66.6458 193.858 65.3159 195.338 62.8359 195.338C55.5759 195.338 38.4558 182.638 35.5358 171.978C35.2758 171.048 35.0758 170.688 34.8858 170.688C34.2658 170.688 33.7358 174.298 31.7958 174.298C31.5158 174.298 31.2058 174.218 30.8558 174.048C20.7258 168.908 24.6258 148.938 23.3558 148.228C23.2958 148.198 23.2458 148.178 23.1958 148.178C22.4858 148.178 22.3258 151.188 20.6958 151.188C20.4258 151.188 20.1158 151.108 19.7558 150.908C16.3958 149.098 16.4358 132.118 24.6858 123.168C26.2958 120.908 26.2058 120.638 24.0958 118.718C22.5858 117.348 22.1158 115.168 22.9158 113.298C23.6658 111.558 24.5258 109.858 25.1758 108.078C25.6258 106.828 26.3258 106.458 27.6158 106.458C27.6158 106.458 27.6359 106.458 27.6459 106.458C39.7359 106.328 54.2958 106.388 56.9758 105.178C59.1858 104.178 38.5358 104.238 36.8658 103.268C34.8058 102.068 30.1358 99.9579 28.1258 99.0279C27.7158 98.8379 27.6658 98.2879 28.0058 98.0079C29.4158 96.8679 30.6859 95.8178 32.0159 94.8578C32.8859 94.2278 33.2559 93.5679 33.1459 92.4779C32.5359 86.5479 32.1059 80.5979 31.3359 74.6879C31.0359 72.4279 30.1359 70.2179 29.2659 68.0879C26.6159 61.5879 24.7858 54.8678 24.1958 47.8979C23.8558 43.8779 24.1158 39.7779 24.4258 35.7379C24.5258 34.3979 25.4258 32.9779 26.2958 31.8479C28.4858 29.0079 30.7158 26.1779 33.1958 23.5979C35.9258 20.7479 38.9158 18.1379 41.8458 15.4879C42.3458 15.0279 42.9258 14.8078 43.4858 14.8078M37.4958 23.6379C37.4958 23.6379 37.5658 23.5679 37.6058 23.5279C37.6058 23.5279 37.5959 23.5379 37.5859 23.5479C37.5559 23.5779 37.5258 23.6079 37.4958 23.6379M43.4858 11.8078C42.1658 11.8078 40.8659 12.3278 39.8359 13.2678C39.3059 13.7478 38.7858 14.2178 38.2558 14.6978C35.8458 16.8678 33.3558 19.1079 31.0358 21.5279C28.3658 24.3179 25.9658 27.3779 23.9258 30.0279C22.3658 32.0579 21.5758 33.8079 21.4458 35.5179C21.1258 39.7579 20.8658 43.9179 21.2258 48.1579C21.8058 55.0679 23.5358 61.9579 26.5058 69.2279C27.3058 71.1879 28.1358 73.2179 28.3758 75.0879C28.8758 78.8979 29.2359 82.8078 29.5859 86.5978C29.7659 88.5778 29.9458 90.5479 30.1558 92.5179C29.0358 93.3279 27.9958 94.1778 26.8858 95.0678L26.1459 95.6679C25.1659 96.4579 24.6758 97.6679 24.8258 98.9179C24.9758 100.158 25.7458 101.218 26.8858 101.738L27.8158 102.168C28.5858 102.528 29.5359 102.958 30.5259 103.428C29.5559 103.428 28.5959 103.448 27.6459 103.458C25.0259 103.458 23.2559 104.668 22.3959 107.058C22.0159 108.118 21.5359 109.168 21.0259 110.288C20.7459 110.898 20.4759 111.508 20.2059 112.118C18.8959 115.168 19.6658 118.718 22.1258 120.948C22.1958 121.018 22.3158 121.118 22.4358 121.228C22.4258 121.248 22.4059 121.268 22.3959 121.288C15.1659 129.268 14.0358 141.578 15.0358 147.508C15.5558 150.598 16.6859 152.628 18.3959 153.548C19.1459 153.948 19.9158 154.168 20.6658 154.178C20.6358 161.428 21.2558 172.508 29.5558 176.718C30.3058 177.098 31.0858 177.298 31.8558 177.298C32.8058 177.298 33.5858 177.028 34.2358 176.618C39.7058 187.238 54.9158 198.328 62.8858 198.328C65.5558 198.328 67.0559 197.168 67.8359 196.198C68.5059 195.368 68.9158 194.368 69.0658 193.218C69.9058 193.388 70.8859 193.608 71.8959 193.848C76.4459 194.888 82.6759 196.308 89.5259 196.308C101.556 196.308 111.066 191.778 117.786 182.848L117.886 182.718L117.966 182.578C119.676 179.698 120.316 179.378 121.476 179.288C123.176 179.128 124.716 178.808 126.086 178.338C127.526 177.848 128.876 176.588 129.436 175.208C129.886 174.098 130.256 172.988 130.616 171.918C131.156 170.288 131.666 168.738 132.396 167.438C135.036 162.758 134.936 157.158 132.146 152.828C130.876 150.848 131.026 149.248 132.696 147.288C133.716 146.098 134.656 144.068 133.426 141.228C133.236 140.808 133.056 140.378 132.886 139.948C133.426 140.018 133.956 140.048 134.476 140.048C137.206 140.048 139.666 139.158 141.796 137.398C144.066 135.518 145.976 133.038 147.186 130.408C150.136 124.008 151.486 116.988 151.306 108.928C151.236 105.938 148.746 103.498 145.746 103.498H137.756C134.566 103.498 131.456 103.498 128.346 103.498C123.216 103.498 118.836 103.498 114.646 103.518C114.676 103.438 114.696 103.348 114.716 103.258C114.946 102.208 114.706 101.108 114.046 100.238L112.896 98.7179C113.166 98.4779 113.436 98.2379 113.696 97.9679C116.336 95.3079 116.416 93.0879 113.986 90.2979C112.796 88.9379 111.576 87.5878 110.396 86.2878C109.336 85.1278 108.256 83.9379 107.206 82.7379C107.556 81.4879 107.946 80.2279 108.316 79.0079C109.066 76.5679 109.836 74.0479 110.386 71.4479C111.816 64.7179 111.656 57.6679 109.886 49.9079C108.836 45.3279 106.586 41.5378 104.406 37.8878C104.036 37.2678 103.666 36.6379 103.296 36.0079C99.1458 28.8779 93.4359 22.4579 85.8359 16.3679C84.8059 15.5479 83.5158 15.0879 82.1958 15.0879C80.1058 15.0879 78.2858 16.2578 77.5758 18.0578C75.5958 23.0478 74.1058 26.9079 72.7358 30.5979C72.2558 31.9079 72.2858 33.6479 72.8058 34.9479C73.2358 36.0079 73.6559 37.0679 74.0859 38.1279C75.8759 42.5979 77.7358 47.2278 79.7858 51.7178C81.2958 55.0178 81.4358 58.4678 81.1558 62.0678L79.5958 60.9479C74.9558 57.6179 70.1559 54.1679 65.4559 50.7579C64.2059 49.8479 62.9258 49.4079 61.5458 49.4079C60.5758 49.4079 59.5958 49.6279 58.5358 50.0879C56.8558 50.8179 55.0958 51.4478 53.2358 52.0978C52.9858 50.8678 52.7058 49.6079 52.3558 48.3679C52.1458 47.6279 52.1458 46.9578 52.7858 45.7078C53.6658 43.9778 54.1558 42.1679 54.2358 40.3279C54.4158 36.3779 54.4458 32.3779 54.4758 28.5079V27.2079C54.4958 25.7179 54.2259 24.5178 53.6459 23.5378C51.8759 20.5278 50.0058 17.5078 47.9458 14.2878C46.9458 12.7278 45.2959 11.7979 43.5259 11.7979L43.4858 11.8078Z" fill="white"/>
</svg>
