<svg xmlns="http://www.w3.org/2000/svg" viewBox="0 0 500 164"><defs><style>.cls-1{fill:none;}.cls-2{fill:#fc306b;}.cls-3{fill:#4f28dd;}.cls-4{fill:#0bb875;}.cls-5{fill:#1a78d7;}.cls-6{fill:#e91224;}.cls-7{fill:#f86e30;}.cls-8{fill:#827ff4;}.cls-9{fill:#74ca38;}.cls-10{fill:#53aef9;}.cls-11{fill:#f78f31;}.cls-12{fill:#feb92f;}.cls-13{fill:#ffc866;}.cls-14{fill:#fcfcfc;}</style></defs><title>prisma-logo-colour-dark-bg</title><g id="Layer_2" data-name="Layer 2"><g id="Layer_1-2" data-name="Layer 1"><g id="prisma-logo-colour-dark-bg"><rect class="cls-1" width="500" height="164"/><polygon class="cls-2" points="59.955 37.148 59.969 37.162 59.955 37.177 59.955 37.148"/><path class="cls-2" d="M70.4516,30.80643,59.96933,37.86258l-.0145-22.881c0-.5067-.39076-.7962-.70942-.56467a.97063.97063,0,0,1,1.63623.26068Z"/><path class="cls-3" d="M60.67875,149.52845a1.07927,1.07927,0,0,1-1.63588-.26069L37.31094,118.1829l22.65839,12.56074v18.22013C59.96933,149.456,60.36027,149.74548,60.67875,149.52845Z"/><path class="cls-4" d="M59.95483,86.33378v27.41886L17.43226,88.44443A2.06158,2.06158,0,0,1,16.52,86.9966c0-.05779-.0145-.11576-.0145-.17373a1.87759,1.87759,0,0,1,.31866-1.11486l10.627-17.69244Z"/><path class="cls-5" d="M59.95483,112.62364v19.357L37.31094,118.1829,17.43226,89.21182A5.85845,5.85845,0,0,1,16.52,86.9966a2.06158,2.06158,0,0,0,.91231,1.44783Z"/><path class="cls-6" d="M59.96933,37.86258,49.47256,30.79193s9.62828-16.23011,9.67158-16.27359a.34012.34012,0,0,1,.10127-.10144c.31866-.23153.70942.058.70942.56467Z"/><polygon class="cls-7" points="59.969 37.162 59.955 49.092 59.955 62.011 39.005 48.513 38.99 48.513 49.473 30.792 59.955 37.148 59.969 37.162"/><path class="cls-8" d="M82.61358,118.1974s-21.87686,31.28757-21.93483,31.331c-.31848.217-.70942-.07246-.70942-.56468V130.74364Z"/><path class="cls-9" d="M103.41871,86.82287c0,.058-.0145.11594-.0145.17373a2.08916,2.08916,0,0,1-.912,1.46232L59.96933,113.75264l-.0145-27.41886L92.47321,68.03007l10.627,17.67794A1.87613,1.87613,0,0,1,103.41871,86.82287Z"/><path class="cls-10" d="M103.40421,86.9966a5.85712,5.85712,0,0,1-.912,2.21522L82.61358,118.1974,59.96933,131.99508l-.0145-19.37144,42.53742-24.16472A2.08916,2.08916,0,0,0,103.40421,86.9966Z"/><path class="cls-11" d="M70.44506,30.8,80.92684,48.51478l-20.972,13.49609.0057-24.83892Z"/><path class="cls-12" d="M59.96386,61.01054v26.219L27.446,68.01818,39.00045,48.5107Z"/><path class="cls-13" d="M80.924,48.51463,92.47837,68.02211,59.96053,87.23351v-26.219Z"/><path class="cls-14" d="M120.21231,51.69776h15.84935v8.34176h.41705c1.66839-3.33665,8.75887-9.593,19.60312-9.593,14.181,0,29.61327,10.4272,29.61327,31.69871S170.67991,113.844,156.08183,113.844c-10.84425,0-17.93473-5.83934-19.60312-9.5931h-.41705v30.44749H120.21231Zm32.53287,47.96511c8.75874,0,17.1005-6.25631,17.1005-17.51761s-8.34176-17.51775-17.1005-17.51775-17.10063,5.83921-17.10063,17.51775,8.34176,17.51761,17.10063,17.51761"/><path class="cls-14" d="M193.20263,51.69776h15.84929V67.54718c2.08544-9.5931,7.92465-17.10063,19.18608-17.10063a15.64567,15.64567,0,0,1,4.17088.41711V65.87885a12.85783,12.85783,0,0,0-4.17088-.41711c-11.67854,0-19.18608,8.34176-19.18608,20.43728v26.69361H193.20263Z"/><path class="cls-14" d="M240.33365,29.17491h15.84929V42.93876H240.33365Zm0,22.52285h15.84929v61.312H240.33365Z"/><path class="cls-14" d="M263.27349,96.74321l12.51263-3.33665c1.25122,4.17087,4.17088,7.92464,10.01009,7.92464,4.17088,0,7.92464-2.08544,7.92464-6.25632,0-2.91954-2.08544-5.005-6.67343-6.67343l-7.50753-2.91954c-10.01009-3.75377-14.181-10.01009-14.181-17.51774,0-10.84432,9.593-17.51762,21.27138-17.51762,11.26142,0,19.18607,6.25632,21.27151,15.84929l-12.51264,3.33665c-1.66833-5.005-5.005-6.6733-7.92464-6.6733-4.17088,0-6.67344,2.50242-6.67344,5.42209,0,2.50255,1.66833,5.0051,6.25632,6.67343l6.67343,2.50255c7.50754,2.50243,15.8493,7.09042,15.8493,17.93474,0,12.09552-10.4272,18.76895-23.35683,18.76895-12.09565-.41711-20.85439-6.25632-22.93983-17.51774"/><path class="cls-14" d="M356.70116,77.97425c0-8.75874-4.588-13.34674-11.26143-13.34674-7.09054,0-11.67841,4.588-11.67841,13.34674v35.03549H317.9119v-61.312h15.84942v7.92465c3.33666-5.005,8.75875-9.17586,17.51762-9.17586,7.50766,0,14.181,3.33665,17.93486,10.4272,3.33665-5.83934,10.4272-10.4272,20.43728-10.4272,12.92975,0,22.52273,7.92464,22.52273,26.6936v35.45248H396.32452V77.97425c0-8.75874-4.588-13.34674-11.26143-13.34674-7.09055,0-11.67841,4.588-11.67841,13.34674v35.03549H356.70116Z"/><path class="cls-14" d="M418.013,82.14526c0-21.27151,15.01519-31.69871,29.61327-31.69871,10.84431,0,17.93473,5.8392,19.60319,9.593h.417V51.69776h15.84942v61.312H467.64645V104.668h-.417c-1.66846,3.33665-8.75888,9.593-19.60319,9.593-14.59808-.417-29.61327-10.84418-29.61327-32.11569M450.546,99.66287c8.75874,0,17.1005-6.25631,17.1005-17.51761,0-11.67854-8.34176-17.51775-17.1005-17.51775s-17.10063,6.25632-17.10063,17.51775,8.34176,17.51761,17.10063,17.51761"/></g></g></g></svg>