<svg width="105" height="32" viewBox="0 0 105 32" fill="none" xmlns="http://www.w3.org/2000/svg">
<path d="M18.2207 10.8643H13.1553V22.7021C13.1553 25.5225 11.4668 27.3223 8.86914 27.3223C6.29004 27.3223 5.08398 25.8936 5.08398 22.8877V10.8643H0V24.1123C0 29.1035 2.375 31.7754 6.82812 31.7754C9.77832 31.7754 11.9863 30.3652 12.9883 27.8975H13.3037V31.3301H18.2207V10.8643Z" fill="white"/>
<path d="M23.4902 31.3301H28.5557V19.5107C28.5557 16.6719 30.2441 14.8721 32.8418 14.8721C35.4209 14.8721 36.627 16.3008 36.627 19.3066V31.3301H41.7109V18.1006C41.7109 13.1094 39.3359 10.4375 34.8828 10.4375C31.9326 10.4375 29.7246 11.8291 28.7227 14.2969H28.4072V10.8643H23.4902V31.3301Z" fill="white"/>
<path d="M54.3877 6.68945C56.4658 6.68945 57.876 5.40918 57.876 3.47949C57.876 1.5498 56.4658 0.269531 54.3877 0.269531C52.3096 0.269531 50.918 1.5498 50.918 3.47949C50.918 5.40918 52.3096 6.68945 54.3877 6.68945Z" fill="white"/>
<path d="M86.0609 31.3301H91.1264V19.5107C91.1264 16.6719 92.8148 14.8721 95.4125 14.8721C97.9916 14.8721 99.1977 16.3008 99.1977 19.3066V31.3301H104.282V18.1006C104.282 13.1094 101.907 10.4375 97.4535 10.4375C94.5033 10.4375 92.2953 11.8291 91.2934 14.2969H90.9779V10.8643H86.0609V31.3301Z" fill="white"/>
<path d="M56.9482 10.8643V31.3301H52.0127V14.9277H45.7783V10.8643H56.9482Z" fill="white"/>
<path d="M81.0883 22.6916C81.0883 28.2766 77.4516 31.7834 71.6811 31.7834C65.9105 31.7834 62.2738 28.2766 62.2738 22.6916H67.265C67.265 25.8459 68.9535 27.6272 71.6811 27.6272C74.4086 27.6272 76.0971 25.8459 76.0971 22.6916H81.0883Z" fill="white"/>
<path d="M71.6811 10.4455C77.4516 10.4455 81.0883 13.9524 81.0883 19.5373H76.0971C76.0971 16.3645 74.4086 14.6018 71.6811 14.6018C68.9535 14.6018 67.265 16.3645 67.265 19.5373H62.2738C62.2738 13.9524 65.9105 10.4455 71.6811 10.4455Z" fill="white"/>
</svg>
