<svg width="32" height="32" viewBox="0 0 32 32" fill="none" xmlns="http://www.w3.org/2000/svg">
<path d="M16 32C24.8366 32 32 24.8366 32 16C32 7.16344 24.8366 0 16 0C7.16344 0 0 7.16344 0 16C0 24.8366 7.16344 32 16 32Z" fill="white"/>
<path d="M25.188 13.502V8.50195H22.688V6.00195H17.689V3.50195H12.689V6.00195H7.68896V8.50195H5.18896V23.501H7.68896V26.001H12.689V28.5H17.688V26.001H22.688V23.501H25.188V18.501H20.189V21.001H17.689V23.501H12.689V21.001H10.191V11.002H12.691V8.50195H17.69V11.002H20.19V13.502H25.188Z" fill="url(#paint0_linear_103_2)"/>
<path d="M19.43 8.37598H17.689V11.001H19.43V8.37598Z" fill="#1682FE"/>
<path d="M14.4261 3.5H12.6851V6.125H14.4261V3.5Z" fill="#1682FE"/>
<path d="M9.42801 6H7.68701V8.625H9.42801V6Z" fill="#60D8A4"/>
<path d="M6.94504 16H5.18604V23.499H6.94504V16Z" fill="#F4BB3B"/>
<path d="M6.94504 8.50195H5.18604V16.001H6.94504V8.50195Z" fill="#60D8A4"/>
<path d="M21.928 10.875H20.187V13.5H21.928V10.875Z" fill="#1682FE"/>
<path d="M21.927 18.5H20.186V21.125H21.927V18.5Z" fill="#FF5A5A"/>
<path d="M19.43 21H17.689V23.625H19.43V21Z" fill="#FF5A5A"/>
<path d="M14.427 25.874H12.686V28.499H14.427V25.874Z" fill="#FF5A5A"/>
<path d="M9.42704 23.375H7.68604V26H9.42704V23.375Z" fill="#F4BB3B"/>
<path d="M26.814 13.5V8.5H24.313V6H19.314V3.5H14.314V6H9.31399V8.5H6.81299V23.5H9.31299V26H14.312V28.499H19.312V26H24.313V23.5H26.814V18.5H21.814V21H19.314V23.5H14.314V21H11.814V11H14.314V8.5H19.314V11H21.814V13.5H26.814Z" fill="#3A3A3A"/>
<defs>
<linearGradient id="paint0_linear_103_2" x1="19.088" y1="6.47714" x2="7.19692" y2="25.055" gradientUnits="userSpaceOnUse">
<stop stop-color="#1682FE"/>
<stop offset="0.3" stop-color="#60D8A4"/>
<stop offset="0.7" stop-color="#FCA75B"/>
<stop offset="1" stop-color="#FF5A5A"/>
</linearGradient>
</defs>
</svg>
