<svg xmlns="http://www.w3.org/2000/svg" fill="none" viewBox="0 0 32 32">
  <g clip-path="url(#clip0_4047_1249)">
    <path fill="#22BF83" d="M31.5 6.328h-2.214a.5.5 0 0 1-.5-.5V3.67a.5.5 0 0 0-.5-.5H26.12a.5.5 0 0 1-.5-.5V.5a.5.5 0 0 0-.5-.5H6.822a.5.5 0 0 0-.5.5v2.17a.5.5 0 0 1-.5.5h-2.16a.5.5 0 0 0-.5.5v2.17a.5.5 0 0 1-.5.5H.5a.5.5 0 0 0-.5.5v18.33a.5.5 0 0 0 .5.5h2.22a.5.5 0 0 1 .5.5v2.166a.5.5 0 0 0 .5.5h2.162a.5.5 0 0 1 .5.5V31.5a.5.5 0 0 0 .5.5H25.18a.5.5 0 0 0 .5-.5v-2.164a.5.5 0 0 1 .5-.5h2.106a.5.5 0 0 0 .5-.5v-2.177a.5.5 0 0 1 .5-.5H31.5a.5.5 0 0 0 .5-.5V6.828a.5.5 0 0 0-.5-.5"></path>
    <path fill="#111629" d="M28.99 14.212c0-1.123-.849-2.003-1.933-2.003h-3.343a1.95 1.95 0 0 0-1.179-1.18v-.76a1.934 1.934 0 0 0-1.933-1.931h-.424c-.751 0-1.404.43-1.724 1.058a1.94 1.94 0 0 0-1.724-1.058h-.423c-.109 0-.214.013-.318.03v-.22c0-.694-.28-1.372-.77-1.86a2.61 2.61 0 0 0-1.862-.772h-1.051a2.6 2.6 0 0 0-1.86.77 2.65 2.65 0 0 0-.772 1.861V9a2.6 2.6 0 0 0-.695.487 2.6 2.6 0 0 0-.455.639c-.034-.002-.067-.01-.102-.01H7.62a1.936 1.936 0 0 0-1.934 1.933v.22a1.94 1.94 0 0 0-1.374 1.315c-.794.24-1.375.98-1.375 1.852v.751c0 .842.54 1.56 1.292 1.825v4.869c0 1.066.868 1.934 1.934 1.934h1.71c.779 0 1.451-.462 1.758-1.125.236.103.497.16.77.16h2.08q.217 0 .42-.045c.332.59.964.988 1.687.988h2.08c.404 0 .779-.126 1.09-.339.316.226.7.361 1.117.361h1.71a1.936 1.936 0 0 0 1.935-1.933v-1.144c0-.024-.007-.047-.008-.071l4.544.002a1.937 1.937 0 0 0 1.935-1.935V16.51c0-.302-.081-.599-.23-.858.149-.258.23-.555.23-.857z"></path>
    <path fill="#CCD4DF" d="M14.156 7.347a1.13 1.13 0 0 0-.8-.331h-1.052a1.13 1.13 0 0 0-1.132 1.132v1.051q.002.089.017.175h1.405c.325 0 .637.13.867.36.145.145.245.325.303.518a1.132 1.132 0 0 0 .723-1.053V8.148c0-.3-.119-.589-.331-.8"></path>
    <path fill="#fff" d="M20.586 21.303h-1.71a.434.434 0 0 0-.435.434v1.143c0 .24.195.434.434.434h1.711c.24 0 .434-.195.434-.434v-1.143a.434.434 0 0 0-.434-.434"></path>
    <path fill="#fff" d="M27.29 15.006c.113.003.2-.1.2-.212v-.581c0-.31-.194-.503-.434-.503h-4.278a.45.45 0 0 1-.45-.447l-.004-.414a.434.434 0 0 0-.434-.43h-.421a.434.434 0 0 1-.434-.435V10.27a.43.43 0 0 0-.433-.432h-.424a.434.434 0 0 0-.434.434v.421c0 .24-.195.434-.434.434h-1.713a.434.434 0 0 1-.434-.434v-.421a.434.434 0 0 0-.434-.434h-.423a.434.434 0 0 0-.434.434v.908c0 .24-.194.435-.434.435h-1.102a.452.452 0 0 0-.192.858.62.62 0 0 1 .363.561v.057a.62.62 0 0 1-.618.619h-5.02a.62.62 0 0 1-.618-.619v-.057a.62.62 0 0 1 .362-.561.452.452 0 0 0-.192-.859H7.62a.434.434 0 0 0-.434.435v1.226c0 .24-.194.435-.434.435h-.588a.434.434 0 0 0-.434.434v.422c0 .24-.195.435-.434.435h-.423a.434.434 0 0 0-.434.434v.752c0 .24.194.434.434.434h.423c.24 0 .434.195.434.434v5.826c0 .24.194.434.434.434h1.71c.24 0 .434-.194.435-.434l.003-2.302c0-.253.205-.457.458-.457h.742c.252 0 .456.204.456.456v1.338c0 .24.195.434.434.434h2.08c.24 0 .434-.194.434-.434V20.58c0-.252.206-.457.457-.457h.348c.24.001.434.196.434.435v2.3c0 .24.194.434.434.434h2.08c.24 0 .433-.194.433-.434v-2.464a.336.336 0 0 0-.335-.336h-.456a.434.434 0 0 1-.434-.434l-.004-5.477c0-.24.194-.434.434-.434h.423c.24 0 .434.194.434.434v4.293c0 .24.195.434.434.434h.409c.24 0 .434.194.434.434v.422c0 .24.194.434.434.435l8.182.003c.24 0 .434-.194.434-.434v-3.225c0-.113-.088-.215-.201-.213a.434.434 0 0 1-.445-.433v-.423c0-.244.201-.44.446-.434m-6.255-.44c0 .24-.195.435-.434.435h-.423a.434.434 0 0 1-.434-.434v-.423c0-.24.194-.434.434-.434h.423c.24 0 .434.194.434.434zm4.388 1.297c0 .239-.194.434-.434.434h-.423a.434.434 0 0 1-.434-.434v-.423c0-.24.195-.434.434-.434h.423c.24 0 .434.194.434.434z"></path>
    <path fill="#97A1C0" d="M11.89 10.215H10.84a1.13 1.13 0 0 0-1.132 1.132v.967c0 .306.247.553.553.553h2.21a.553.553 0 0 0 .552-.553v-.967a1.13 1.13 0 0 0-1.132-1.132"></path>
  </g>
  <defs>
    <clipPath id="clip0_4047_1249">
      <path fill="#fff" d="M0 0h32v32H0z"></path>
    </clipPath>
  </defs>
</svg>
